<svg width="63" height="63" viewBox="0 0 63 63" fill="none" xmlns="http://www.w3.org/2000/svg">
<circle cx="31.5" cy="31.5" r="31.5" fill="url(#paint0_linear_89_403)"/>
<path d="M31.9968 21.9077C30.0592 21.9077 28.4828 23.4841 28.4828 25.4216C28.4828 27.3593 30.0592 28.9356 31.9968 28.9356C33.9344 28.9356 35.5108 27.3593 35.5108 25.4216C35.5108 23.4841 33.9344 21.9077 31.9968 21.9077ZM31.9968 27.7404C30.7183 27.7404 29.678 26.7002 29.678 25.4216C29.678 24.1431 30.7183 23.1029 31.9968 23.1029C33.2754 23.1029 34.3156 24.1431 34.3156 25.4216C34.3156 26.7002 33.2754 27.7404 31.9968 27.7404Z" fill="white"/>
<path d="M23.5838 25.4841C21.9915 25.4841 20.6961 26.7795 20.6961 28.3718C20.6961 29.9641 21.9915 31.2595 23.5838 31.2595C25.1761 31.2595 26.4715 29.9641 26.4715 28.3718C26.4715 26.7795 25.176 25.4841 23.5838 25.4841ZM23.5838 30.0642C22.6506 30.0642 21.8914 29.305 21.8914 28.3718C21.8914 27.4386 22.6506 26.6794 23.5838 26.6794C24.517 26.6794 25.2762 27.4386 25.2762 28.3718C25.2762 29.305 24.517 30.0642 23.5838 30.0642Z" fill="white"/>
<path d="M40.4184 25.4841C38.8262 25.4841 37.5307 26.7795 37.5307 28.3718C37.5307 29.9641 38.8262 31.2595 40.4184 31.2595C42.0107 31.2595 43.306 29.9641 43.306 28.3718C43.306 26.7795 42.0106 25.4841 40.4184 25.4841ZM40.4184 30.0642C39.4852 30.0642 38.726 29.305 38.726 28.3718C38.726 27.4386 39.4852 26.6794 40.4184 26.6794C41.3515 26.6794 42.1107 27.4386 42.1107 28.3718C42.1107 29.305 41.3515 30.0642 40.4184 30.0642Z" fill="white"/>
<path d="M46.4024 40.8972H44.7221V36.4972C44.7221 34.1241 42.7914 32.1935 40.4183 32.1935C39.0987 32.1935 37.9165 32.791 37.1265 33.7292C36.51 31.4749 34.444 29.813 31.9968 29.813C29.5518 29.813 27.4877 31.4759 26.8728 33.7314C26.0838 32.792 24.9025 32.1935 23.5838 32.1935C21.2107 32.1935 19.28 34.1241 19.28 36.4972V40.8972H17.5976C17.2675 40.8972 17 41.1647 17 41.4948C17 41.8248 17.2675 42.0924 17.5976 42.0924H46.4024C46.7324 42.0924 47 41.8248 47 41.4948C47 41.1647 46.7324 40.8972 46.4024 40.8972ZM26.6859 40.8972H20.4752V36.4972C20.4752 34.7832 21.8697 33.3887 23.5837 33.3887C25.2942 33.3887 26.6858 34.7832 26.6858 36.4972V40.8972H26.6859ZM36.1147 40.8972H27.8811V35.1303C27.8811 32.8573 29.7274 31.0082 31.9968 31.0082C34.2698 31.0082 36.119 32.8573 36.119 35.1303L36.1147 40.8972ZM43.5269 40.8971H37.3142V36.3347C37.3989 34.6959 38.7589 33.3887 40.4184 33.3887C42.1324 33.3887 43.5269 34.7831 43.5269 36.4971V40.8971Z" fill="white"/>
<path d="M29.1336 36.3091C28.8036 36.3091 28.536 36.5766 28.536 36.9067V39.7742C28.536 40.1043 28.8036 40.3718 29.1336 40.3718C29.4637 40.3718 29.7312 40.1043 29.7312 39.7742V36.9067C29.7312 36.5767 29.4637 36.3091 29.1336 36.3091Z" fill="white"/>
<path d="M29.1336 34.3975C28.8036 34.3975 28.536 34.665 28.536 34.9951V35.1225C28.536 35.4526 28.8036 35.7201 29.1336 35.7201C29.4637 35.7201 29.7312 35.4526 29.7312 35.1225V34.9951C29.7312 34.665 29.4637 34.3975 29.1336 34.3975Z" fill="white"/>
<defs>
<linearGradient id="paint0_linear_89_403" x1="-1.78608" y1="13.65" x2="77.4684" y2="19.2782" gradientUnits="userSpaceOnUse">
<stop stop-color="#626884"/>
<stop offset="0.33" stop-color="#525B9B"/>
</linearGradient>
</defs>
</svg>
