<svg width="63" height="63" viewBox="0 0 63 63" fill="none" xmlns="http://www.w3.org/2000/svg">
<circle cx="31.5" cy="31.5" r="31.5" fill="url(#paint0_linear_88_393)"/>
<g clip-path="url(#clip0_88_393)">
<path d="M31.377 19.7484C31.4203 19.7798 31.4385 19.8356 31.422 19.8864L31.1041 20.8648C31.067 20.9786 31.1974 21.0733 31.2942 21.0029L32.1264 20.3984C32.1696 20.3669 32.2282 20.3669 32.2715 20.3984L33.1037 21.0029C33.2005 21.0733 33.3309 20.9787 33.2939 20.8648L32.976 19.8865C32.9594 19.8357 32.9776 19.7799 33.0209 19.7485L33.8531 19.1358C33.9499 19.0654 33.9003 18.9043 33.7806 18.9043H32.7518C32.6984 18.9043 32.6509 18.8779 32.6344 18.8269L32.3165 17.8526C32.2795 17.7389 32.1185 17.7409 32.0815 17.8546L31.7636 18.8259C31.747 18.8767 31.6996 18.9043 31.646 18.9043H30.6173C30.4977 18.9043 30.4479 19.0654 30.5448 19.1358L31.377 19.7484Z" fill="white"/>
<path d="M41.6028 23.2041C41.565 23.1663 41.5559 23.1083 41.5801 23.0607L42.0472 22.144C42.1015 22.0375 41.9875 21.9236 41.8809 21.9779L40.9643 22.4449C40.9167 22.4693 40.8588 22.46 40.8209 22.4222L40.0936 21.6948C40.009 21.6102 39.8656 21.6833 39.8843 21.8015L40.0452 22.8175C40.0535 22.8704 40.0268 22.9227 39.9792 22.9469L39.0627 23.414C38.956 23.4682 38.9812 23.6273 39.0994 23.646L40.1154 23.807C40.1684 23.8154 40.2098 23.8568 40.2182 23.9096L40.379 24.9256C40.3977 25.0439 40.5568 25.069 40.6111 24.9624L41.0781 24.0458C41.1024 23.9981 41.1547 23.9715 41.2075 23.9799L42.2236 24.1408C42.3418 24.1595 42.4149 24.016 42.3302 23.9315L41.6028 23.2041Z" fill="white"/>
<path d="M46.178 31.8213L45.2198 31.5034C45.1688 31.4868 45.1543 31.4394 45.1543 31.3858V30.3571C45.1543 30.2375 44.9811 30.1877 44.9108 30.2846L44.2964 31.1168C44.2648 31.16 44.2039 31.1782 44.1531 31.1618L43.1723 30.8437C43.0586 30.8068 42.9627 30.937 43.033 31.0338L43.6371 31.8661C43.6685 31.9094 43.6683 31.968 43.6368 32.0113L43.032 32.8436C42.9618 32.9404 43.0562 33.0707 43.17 33.0337L44.1483 32.7157C44.1992 32.6993 44.2548 32.7173 44.2864 32.7606L44.9109 33.5928C44.9812 33.6896 45.1543 33.64 45.1543 33.5203V32.4916C45.1543 32.438 45.1688 32.3906 45.2198 32.3741L46.1882 32.0561C46.3019 32.0193 46.2919 31.8583 46.178 31.8213Z" fill="white"/>
<path d="M25.1858 23.3736C25.304 23.3548 25.3292 23.1959 25.2226 23.1415L24.3061 22.6745C24.2582 22.6502 24.2316 22.5979 24.2401 22.545L24.4009 21.529C24.4197 21.4108 24.2762 21.3378 24.1916 21.4224L23.4644 22.1498C23.4265 22.1876 23.3684 22.1968 23.3209 22.1724L22.4042 21.7054C22.2976 21.6511 22.1837 21.765 22.2381 21.8715L22.705 22.7882C22.7294 22.8359 22.7203 22.8938 22.6824 22.9316L21.955 23.659C21.8704 23.7436 21.9434 23.8871 22.0616 23.8683L23.0776 23.7074C23.1306 23.699 23.1827 23.7256 23.2071 23.7733L23.6741 24.6899C23.7285 24.7965 23.8875 24.7714 23.9061 24.6532L24.0671 23.6372C24.0755 23.5843 24.1169 23.5429 24.1698 23.5345L25.1858 23.3736Z" fill="white"/>
<path d="M20.9813 30.6488C21.0516 30.5521 20.9569 30.4218 20.8432 30.4588L19.8649 30.7767C19.814 30.7932 19.7582 30.7751 19.7269 30.7318L19.1249 29.8996C19.0546 29.8028 18.9043 29.8524 18.9043 29.9721V31.0008C18.9043 31.0544 18.8672 31.1018 18.8162 31.1183L17.8364 31.4363C17.7227 31.4732 17.7217 31.6342 17.8357 31.6713L18.8164 31.989C18.8673 32.0056 18.9043 32.053 18.9043 32.1066V33.1353C18.9043 33.2549 19.0546 33.3047 19.1248 33.2078L19.7282 32.3756C19.7597 32.3324 19.8145 32.3142 19.8655 32.3307L20.8434 32.6487C20.9573 32.6856 21.0516 32.5554 20.9814 32.4586L20.3767 31.6264C20.3452 31.583 20.3453 31.5244 20.3767 31.4811L20.9813 30.6488Z" fill="white"/>
<path d="M38.7061 32.0568C38.5944 29.6354 37.1966 27.5498 35.1789 26.4691C35.0198 26.3824 34.8558 26.3028 34.6884 26.2304C33.8714 25.8753 32.9698 25.6782 32.0221 25.6782C28.4626 25.6782 25.5562 28.4586 25.3478 31.9669L25.3496 31.9665V31.9784C25.3496 32.1078 25.3435 32.6873 25.3435 32.6873L25.2438 32.9082H25.9101C26.1604 32.0879 26.9292 31.5272 27.8361 31.5272C28.9461 31.5272 29.8493 32.4545 29.8493 33.5646C29.8493 34.6745 28.9461 35.5598 27.8361 35.5598C26.7735 35.5598 25.9008 34.7246 25.8283 33.6699H25.0333C25.0164 33.6699 25.0003 33.697 24.984 33.6947L24.1477 36.0306C24.0302 36.3563 24.2715 36.7168 24.6176 36.7168H25.3378L25.3324 40.4368C25.3324 41.1712 25.928 41.7558 26.6625 41.7558H29.041V45.2535C29.041 45.7984 29.5883 46.2089 30.1333 46.2089H36.2525C36.7975 46.2089 37.2442 45.7984 37.2442 45.2535V38.2271C37.2442 37.2687 37.4971 36.3329 37.9449 35.4852C38.4127 34.5998 38.6866 33.5969 38.7121 32.5318C38.7133 32.4784 38.7138 32.4238 38.7138 32.3691C38.7138 32.2646 38.7107 32.1601 38.7061 32.0568ZM32.1298 31.5604H31.5605V32.1343C31.5605 32.3345 31.3798 32.4968 31.1797 32.4968C30.9795 32.4968 30.7988 32.3345 30.7988 32.1343V31.5604H30.2831C30.0829 31.5604 29.9205 31.3797 29.9205 31.1796C29.9205 30.9794 30.0829 30.7987 30.2831 30.7987H30.7988V30.2875C30.7988 30.0873 30.9795 29.9249 31.1797 29.9249C31.3798 29.9249 31.5605 30.0873 31.5605 30.2875V30.7987H32.1298C32.33 30.7987 32.4924 30.9794 32.4924 31.1796C32.4924 31.3797 32.33 31.5604 32.1298 31.5604Z" fill="white"/>
<path d="M28.7485 34.4981C28.9792 34.2648 29.1243 33.9444 29.1243 33.5885C29.1243 32.8779 28.5469 32.3005 27.8362 32.3005C27.4841 32.3005 27.1638 32.4416 26.9305 32.6724C26.6946 32.907 26.5483 33.2313 26.5483 33.5886C26.5483 34.2992 27.1257 34.8766 27.8362 34.8766C28.1922 34.8766 28.5151 34.7315 28.7485 34.4981Z" fill="white"/>
</g>
<defs>
<linearGradient id="paint0_linear_88_393" x1="-1.78608" y1="13.65" x2="77.4684" y2="19.2782" gradientUnits="userSpaceOnUse">
<stop stop-color="#626884"/>
<stop offset="0.33" stop-color="#525B9B"/>
</linearGradient>
<clipPath id="clip0_88_393">
<rect width="30" height="30" fill="white" transform="translate(17 17)"/>
</clipPath>
</defs>
</svg>
