<svg width="63" height="63" viewBox="0 0 63 63" fill="none" xmlns="http://www.w3.org/2000/svg">
<circle cx="31.5" cy="31.5" r="31.5" fill="url(#paint0_linear_88_379)"/>
<path d="M29.4226 19.6714C31.5195 19.6714 33.2145 21.3651 33.2145 23.4603C33.2145 25.5556 31.5195 27.2667 29.4226 27.2667C27.3257 27.2667 25.6307 25.573 25.6307 23.4778C25.6307 21.3825 27.3257 19.6714 29.4226 19.6714ZM40.1867 35.6476H35.4337L37.6529 31.8238C38.1072 31.0206 37.8276 30.0079 37.0413 29.554C36.255 29.1 35.2415 29.3794 34.7871 30.1651L32.5679 33.9889L29.2653 28.3317C28.9508 27.7381 28.3217 27.4413 27.5353 27.4413C27.4305 27.4413 27.2033 27.4762 27.081 27.5111C26.9762 27.5286 26.8189 27.581 26.6966 27.6159C23.5163 28.6635 21 33.7444 21 39C21.0874 39 28.6362 39 30.5584 39C30.4885 38.8952 30.4186 38.8079 30.3487 38.7032L26.5218 32.1032C26.3995 31.8762 26.4869 31.5794 26.6966 31.4571C26.9237 31.3349 27.2208 31.4222 27.3431 31.6317L31.135 38.1794C31.4146 38.6683 31.9388 39 32.5504 39H40.1867C41.1128 39 41.8467 38.2492 41.8467 37.3413C41.8642 36.381 41.0953 35.6476 40.1867 35.6476ZM38.5976 19.4342V18.8968L38.0338 18.8016C37.9922 18.6175 37.9195 18.4449 37.8215 18.2898L38.1529 17.8243L37.7724 17.4441L37.3066 17.7752C37.1517 17.6774 36.9789 17.6051 36.7943 17.5631L36.6994 17H36.1612L36.0663 17.563C35.8817 17.6049 35.709 17.6773 35.5541 17.7752L35.0882 17.444L34.7077 17.8242L35.0391 18.2897C34.9412 18.4448 34.8685 18.6174 34.8268 18.8016L34.2629 18.8968V19.4342L34.8267 19.529C34.8684 19.7135 34.9411 19.8861 35.039 20.0412L34.7076 20.5067L35.0881 20.8867L35.554 20.5555C35.7089 20.6534 35.8816 20.726 36.0662 20.7677L36.1611 21.331H36.6993L36.7942 20.7677C36.9788 20.726 37.1516 20.6534 37.3065 20.5555L37.7723 20.8867L38.1528 20.5067L37.8214 20.0412C37.9194 19.8861 37.9921 19.7135 38.0337 19.529L38.5976 19.4342ZM36.4301 20.0201C35.9582 20.0201 35.5752 19.6375 35.5752 19.1655C35.5752 18.6936 35.9582 18.3109 36.4301 18.3109C36.9025 18.3109 37.2854 18.6936 37.2854 19.1655C37.2854 19.6375 36.9025 20.0201 36.4301 20.0201ZM42.343 22.5166L43 22.1092L42.7244 21.4363L41.97 21.6059C41.8277 21.4028 41.6503 21.2221 41.442 21.0738L41.6182 20.3216L40.9472 20.0405L40.534 20.6934C40.2821 20.6489 40.0288 20.6493 39.784 20.6903L39.3761 20.0338L38.7027 20.3092L38.8725 21.063C38.6692 21.2052 38.4883 21.3825 38.3399 21.5906L37.5871 21.4145L37.3058 22.085L37.9592 22.4979C37.9147 22.7496 37.9151 23.0027 37.9562 23.2473L37.2991 23.6548L37.5747 24.3277L38.3291 24.158C38.4715 24.3612 38.6488 24.5419 38.8571 24.6902L38.6809 25.4424L39.3519 25.7235L39.7652 25.0706C40.0171 25.115 40.2704 25.1147 40.5152 25.0737L40.923 25.7302L41.5964 25.4548L41.4266 24.701C41.6299 24.5587 41.8108 24.3815 41.9592 24.1734L42.712 24.3495L42.9934 23.679L42.3399 23.2661C42.3843 23.0143 42.384 22.7612 42.343 22.5166ZM41.2162 23.3288C40.9692 23.9174 40.2915 24.1946 39.7024 23.9478C39.1132 23.701 38.8358 23.0238 39.0828 22.4351C39.3298 21.8465 40.0075 21.5693 40.5967 21.8161C41.1858 22.0629 41.4631 22.7401 41.2162 23.3288Z" fill="white"/>
<defs>
<linearGradient id="paint0_linear_88_379" x1="-1.78608" y1="13.65" x2="77.4684" y2="19.2782" gradientUnits="userSpaceOnUse">
<stop stop-color="#626884"/>
<stop offset="0.33" stop-color="#525B9B"/>
</linearGradient>
</defs>
</svg>
