<svg width="63" height="63" viewBox="0 0 63 63" fill="none" xmlns="http://www.w3.org/2000/svg">
<circle cx="31.5" cy="31.5" r="31.5" fill="url(#paint0_linear_88_398)"/>
<g clip-path="url(#clip0_88_398)">
<path d="M30.2968 40.4344C29.1273 41.5152 27.5097 41.7572 26.075 41.0664C25.5563 40.8166 25.1186 40.4717 24.7759 40.0586L22.8224 44.3796C22.7335 44.5762 22.8327 44.7243 22.8795 44.7789C22.9262 44.8334 23.0575 44.954 23.2653 44.8962L24.6875 44.5004C24.8496 44.4553 25.0134 44.4336 25.175 44.4336C25.8565 44.4336 26.4979 44.8193 26.8067 45.4585L27.449 46.7877C27.5428 46.982 27.7188 47.0013 27.792 46.9999C27.8639 46.9989 28.0406 46.9756 28.1294 46.779L31.2368 39.9058C30.8954 40.004 30.5721 40.18 30.2968 40.4344Z" fill="white"/>
<path d="M41.1776 44.3796L39.224 40.0586C38.8814 40.4718 38.4437 40.8167 37.925 41.0664C36.4902 41.7572 34.8727 41.5152 33.7031 40.4344C33.4279 40.18 33.1045 40.004 32.763 39.9058L35.8704 46.779C35.9593 46.9757 36.136 46.9989 36.2078 46.9999C36.281 47.0013 36.457 46.982 36.5508 46.7877L37.1931 45.4585C37.5019 44.8193 38.1434 44.4336 38.8249 44.4336C38.9864 44.4336 39.1503 44.4553 39.3123 44.5004L40.7345 44.8962C40.9423 44.9541 41.0736 44.8334 41.1203 44.7789C41.1672 44.7243 41.2665 44.5761 41.1776 44.3796Z" fill="white"/>
<path d="M42.7122 29.1753C41.0897 28.0643 40.5863 25.8586 41.5661 24.1537C42.155 23.1288 41.8485 22.1161 41.3653 21.51C40.882 20.9042 39.9628 20.38 38.8327 20.726C36.9528 21.3018 34.9141 20.3203 34.192 18.4912C33.7579 17.3918 32.775 17 32 17C31.225 17 30.2421 17.3918 29.808 18.4913C29.0859 20.3204 27.0474 21.3018 25.1673 20.7261C24.0371 20.3802 23.1181 20.9042 22.6347 21.5101C22.1515 22.1161 21.845 23.1287 22.4339 24.1537C23.4137 25.8586 22.9103 28.0644 21.2878 29.1753C20.3125 29.8432 20.1493 30.8886 20.3217 31.6442C20.4941 32.3998 21.0948 33.2708 22.2633 33.4494C24.2071 33.7463 25.6177 35.5152 25.4748 37.4763C25.3888 38.6553 26.1044 39.4347 26.8026 39.7711C27.501 40.1073 28.5565 40.1809 29.4246 39.3786C30.1466 38.7114 31.0735 38.3776 32 38.3776C32.9268 38.3776 33.8532 38.7112 34.5753 39.3786C35.4435 40.181 36.4991 40.1074 37.1973 39.7711C37.8956 39.4348 38.6111 38.6554 38.5252 37.4764C38.3823 35.5152 39.7929 33.7464 41.7367 33.4494C42.9052 33.2708 43.5058 32.3998 43.6783 31.6442C43.8507 30.8885 43.6874 29.8431 42.7122 29.1753ZM32 36.683C27.7476 36.683 24.288 33.2234 24.288 28.9709C24.288 24.7185 27.7475 21.2588 32 21.2588C36.2525 21.2588 39.7121 24.7184 39.7121 28.9709C39.712 33.2233 36.2525 36.683 32 36.683Z" fill="white"/>
<path d="M31.9999 22.6968C28.5403 22.6968 25.7258 25.5114 25.7258 28.9709C25.7258 32.4305 28.5403 35.2451 31.9999 35.2451C35.4596 35.2451 38.2741 32.4305 38.2741 28.9709C38.2741 25.5114 35.4595 22.6968 31.9999 22.6968ZM35.2153 28.3626L31.3105 31.2147C31.1865 31.3052 31.0378 31.3531 30.8864 31.3531C30.8474 31.3531 30.8082 31.3499 30.7692 31.3435C30.5788 31.312 30.409 31.2053 30.298 31.0473L29.13 29.3843C28.9018 29.0593 28.9802 28.6109 29.3051 28.3827C29.6301 28.1544 30.0785 28.2328 30.3067 28.5578L31.0538 29.6215L34.3672 27.2015C34.6879 26.9674 35.1377 27.0372 35.3718 27.358C35.606 27.6786 35.5359 28.1284 35.2153 28.3626Z" fill="white"/>
</g>
<defs>
<linearGradient id="paint0_linear_88_398" x1="-1.78608" y1="13.65" x2="77.4684" y2="19.2782" gradientUnits="userSpaceOnUse">
<stop stop-color="#626884"/>
<stop offset="0.33" stop-color="#525B9B"/>
</linearGradient>
<clipPath id="clip0_88_398">
<rect width="30" height="30" fill="white" transform="translate(17 17)"/>
</clipPath>
</defs>
</svg>
