<svg width="63" height="63" viewBox="0 0 63 63" fill="none" xmlns="http://www.w3.org/2000/svg">
<circle cx="31.5" cy="31.5" r="31.5" fill="url(#paint0_linear_88_388)"/>
<path d="M36.6875 26.375C36.6875 26.8925 37.1075 27.3125 37.625 27.3125H39.5C40.0175 27.3125 40.4375 26.8925 40.4375 26.375C40.4375 25.8575 40.0175 25.4375 39.5 25.4375H37.625C37.1075 25.4375 36.6875 25.8575 36.6875 26.375Z" fill="white"/>
<path d="M26.375 27.3125C26.8925 27.3125 27.3125 26.8925 27.3125 26.375C27.3125 25.8575 26.8925 25.4375 26.375 25.4375H24.5C23.9825 25.4375 23.5625 25.8575 23.5625 26.375C23.5625 26.8925 23.9825 27.3125 24.5 27.3125H26.375Z" fill="white"/>
<path d="M28.25 27.3126C28.25 28.3288 29.0084 29.7266 29.6562 30.4926V31.1863L25.9559 33.0369C25.9437 33.0435 25.9362 33.0548 25.924 33.0613C25.9015 33.0735 25.8772 33.081 25.8547 33.0951L23.0422 34.9701C22.7647 35.1548 22.6062 35.4744 22.6269 35.8091C22.6475 36.1419 22.8444 36.4401 23.1434 36.5891L25.4375 37.7357V41.3751C25.4375 41.7304 25.6381 42.0548 25.9559 42.2141L31.5809 45.0266C31.594 45.0332 31.61 45.0304 31.624 45.0369C31.744 45.0894 31.8706 45.1251 32 45.1251C32.1294 45.1251 32.2559 45.0894 32.3759 45.036C32.39 45.0304 32.405 45.0323 32.419 45.0257L38.044 42.2132C38.3619 42.0548 38.5625 41.7304 38.5625 41.3751V37.7357L40.8565 36.5882C41.1556 36.4391 41.3525 36.141 41.3731 35.8082C41.3937 35.4744 41.2353 35.1548 40.9578 34.9691L38.1453 33.0941C38.1237 33.0801 38.0994 33.0726 38.0769 33.0604C38.0647 33.0538 38.0572 33.0416 38.045 33.0351L34.3437 31.1863V30.4926C34.9915 29.7266 35.75 28.3288 35.75 27.3126C35.75 25.2407 34.1028 23.6169 32 23.6169C29.8972 23.6169 28.25 25.2407 28.25 27.3126ZM32 33.8751C32.7284 33.8751 33.3715 33.5338 33.8019 33.0116L35.5287 33.8751L32 35.6394L28.4712 33.8751L30.1981 33.0116C30.6284 33.5338 31.2715 33.8751 32 33.8751ZM31.5312 31.5313V31.0626H32.4687V31.5313C32.4687 31.7901 32.2587 32.0001 32 32.0001C31.7412 32.0001 31.5312 31.7901 31.5312 31.5313ZM26.4425 34.9569L30.1362 36.8038L29.1209 37.4807L25.4272 35.6338L26.4425 34.9569ZM27.3125 38.6732L28.7684 39.4007C28.9006 39.4673 29.044 39.5001 29.1875 39.5001C29.3694 39.5001 29.5512 39.4466 29.7078 39.3426L31.0625 38.4388V42.6698L27.3125 40.7948V38.6732ZM36.6875 40.7957L32.9375 42.6707V38.4398L34.2922 39.3435C34.4487 39.4466 34.6306 39.5001 34.8125 39.5001C34.9559 39.5001 35.0994 39.4673 35.2315 39.4016L36.6875 38.6732V40.7957ZM34.88 37.4807L33.8647 36.8038L37.5584 34.9569L38.5737 35.6338L34.88 37.4807ZM32 25.4919C33.0519 25.4919 33.875 26.2916 33.875 27.3126C33.875 27.7185 33.4175 28.6598 32.9975 29.1876H31.0034C30.5825 28.6598 30.125 27.7185 30.125 27.3126C30.125 26.2916 30.9481 25.4919 32 25.4919Z" fill="white"/>
<path d="M32.9375 21.6875V19.8125C32.9375 19.295 32.5175 18.875 32 18.875C31.4825 18.875 31.0625 19.295 31.0625 19.8125V21.6875C31.0625 22.205 31.4825 22.625 32 22.625C32.5175 22.625 32.9375 22.205 32.9375 21.6875Z" fill="white"/>
<path d="M36.6406 21.0247L35.315 22.3503C34.9484 22.7169 34.9484 23.3094 35.315 23.6759C35.4978 23.8587 35.7378 23.9506 35.9778 23.9506C36.2178 23.9506 36.4578 23.8587 36.6406 23.6759L37.9662 22.3503C38.3328 21.9837 38.3328 21.3912 37.9662 21.0247C37.5996 20.6581 37.0062 20.6581 36.6406 21.0247Z" fill="white"/>
<path d="M27.3593 21.0247C26.9928 20.6581 26.4003 20.6581 26.0337 21.0247C25.6671 21.3912 25.6671 21.9837 26.0337 22.3503L27.3593 23.6759C27.5421 23.8587 27.7821 23.9506 28.0221 23.9506C28.2621 23.9506 28.5021 23.8587 28.685 23.6759C29.0515 23.3094 29.0515 22.7169 28.685 22.3503L27.3593 21.0247Z" fill="white"/>
<defs>
<linearGradient id="paint0_linear_88_388" x1="-1.78608" y1="13.65" x2="77.4684" y2="19.2782" gradientUnits="userSpaceOnUse">
<stop stop-color="#626884"/>
<stop offset="0.33" stop-color="#525B9B"/>
</linearGradient>
</defs>
</svg>
