<svg width="60" height="60" viewBox="0 0 60 60" fill="none" xmlns="http://www.w3.org/2000/svg">
<path fill-rule="evenodd" clip-rule="evenodd" d="M32.7946 16.602C35.3551 13.6742 49.0479 10.0015 49.0479 10.0015C49.0479 10.0015 46.7204 24.6471 44.672 26.9893C43.2231 28.6461 38.7662 27.7457 36.2819 27.077C35.1912 28.804 34.2691 30.7162 33.7871 32.7111C33.621 33.399 32.8837 33.7406 32.1406 33.474C31.3975 33.2073 30.9297 32.4336 31.0959 31.7458C31.6526 29.4413 32.703 27.2848 33.9097 25.3846C32.809 23.2553 30.8845 18.7861 32.7946 16.602ZM17.3611 35.0015H11.25V48.7515H17.3611V46.3685C18.3499 46.3345 19.3795 46.3078 19.8176 46.3251C21.913 46.408 23.4779 46.896 25.06 47.3895C26.536 47.8498 28.0273 48.315 29.9785 48.4601C30.4689 48.4965 30.946 48.5436 31.4086 48.5892C33.0795 48.754 34.5605 48.9 35.7846 48.4601C37.3479 47.8982 46.2805 43.6285 47.3971 42.5048C48.5136 41.3812 47.9554 38.3473 44.494 38.9092C42.786 39.1863 40.8062 39.9835 39.0106 40.7062C37.1672 41.4483 35.518 42.1122 34.5564 42.0553C32.6582 41.943 27.6336 41.0441 27.6336 41.0441L33.4028 41.1126C33.4028 41.1126 34.2177 41.1551 35.338 40.37C36.4582 39.5848 37.4595 37.3361 35.7846 37.3361C34.1098 37.3361 32.3232 36.7743 32.3232 36.7743L25.1771 35.2012C25.1771 35.2012 22.7206 34.7517 21.7158 35.2012C21.0781 35.4863 18.8817 36.2691 17.3611 36.8032V35.0015ZM15.863 15.6105C15.863 15.6105 26.0256 18.365 27.9259 20.5608C29.247 22.0875 28.0965 25.1023 27.2725 26.7983C28.2641 28.431 29.1332 30.2118 29.6964 32.068C29.8976 32.7311 29.5284 33.4342 28.8717 33.6385C28.215 33.8427 27.5196 33.4706 27.3184 32.8075C26.8595 31.295 26.1567 29.8132 25.3339 28.4181C23.4892 28.9196 20.1854 29.5931 19.1108 28.3513C17.5905 26.5947 15.863 15.6105 15.863 15.6105ZM35.6792 24.9676C35.1127 24.573 34.9734 23.794 35.368 23.2275C37.6109 20.0072 39.3933 17.922 40.6324 16.6292C41.2521 15.9827 41.7364 15.5341 42.0746 15.2408C42.2439 15.0941 42.3766 14.9862 42.4715 14.9118C42.519 14.8746 42.5571 14.8458 42.5855 14.8247L42.621 14.7987L42.6333 14.7898L42.6381 14.7865L42.6401 14.7851C42.6406 14.7848 42.6419 14.7837 43.3554 15.7995L42.6419 14.7837C43.2069 14.387 43.9865 14.5232 44.3832 15.0881C44.7787 15.6512 44.6447 16.4275 44.0846 16.8255L44.076 16.8318C44.065 16.84 44.044 16.8558 44.0133 16.88C43.9516 16.9281 43.851 17.0096 43.7124 17.1297C43.4351 17.37 43.0065 17.7652 42.4371 18.3592C41.2983 19.5473 39.5971 21.5297 37.4194 24.6563C37.0247 25.2227 36.2458 25.3621 35.6792 24.9676ZM25.8934 25.101C26.2856 25.67 26.1466 26.4532 25.5828 26.8503C25.019 27.2473 24.244 27.108 23.8517 26.5388C22.6896 24.8528 21.7887 23.7938 21.1959 23.1688C20.8996 22.8565 20.6805 22.6528 20.5445 22.5337C20.4766 22.4741 20.4294 22.4357 20.4037 22.4153C20.3921 22.4062 20.3849 22.4007 20.3821 22.3986C19.8288 21.9978 19.6977 21.2201 20.0907 20.6555C20.4861 20.0875 21.2619 19.9502 21.8235 20.3488L21.1107 21.3727C21.8235 20.3488 21.823 20.3485 21.8235 20.3488L21.8252 20.3501L21.8271 20.3515L21.8313 20.3543L21.8409 20.3613L21.866 20.38C21.8854 20.3945 21.9097 20.4132 21.9392 20.4366C21.9981 20.4831 22.0771 20.5481 22.1754 20.6342C22.3721 20.8066 22.6464 21.0637 22.9926 21.4288C23.685 22.1587 24.6665 23.321 25.8934 25.101Z" fill="#333333"/>
</svg>
