<svg width="59" height="60" viewBox="0 0 59 60" fill="none" xmlns="http://www.w3.org/2000/svg">
<path d="M29.0096 14.3703C21.9716 14.4735 16.225 20.0592 15.9267 27.0862C15.7998 30.0804 16.6473 32.9459 18.3778 35.3729C20.9872 39.0319 22.2025 42.5416 22.2025 46.417V46.5755C22.2025 46.6533 22.2127 46.7285 22.2254 46.8026V55.7145C22.2254 56.1629 22.4485 56.5822 22.8206 56.8322L27.1875 59.7701C27.4098 59.9197 27.6717 59.9997 27.9396 59.9997H27.9417L30.5234 59.9949C30.7923 59.9943 31.0548 59.9135 31.2771 59.7626L35.6014 56.8293C35.9711 56.5784 36.1923 56.161 36.1923 55.7142V46.8037C36.2053 46.7291 36.2152 46.6536 36.2152 46.5752V46.4154C36.2152 42.4875 37.4133 39.0025 39.9855 35.4484C41.6325 33.1725 42.5031 30.4803 42.5031 27.6628C42.5034 20.2661 36.4273 14.255 29.0096 14.3703ZM30.8807 47.923L24.9203 49.7794V47.923H30.8807ZM24.9203 52.6014L33.498 49.93V51.1124L24.9203 53.7841V52.6014ZM30.106 57.3013L28.3497 57.3046L26.5545 56.0969L33.498 53.9344V55.0007L30.106 57.3013ZM27.8617 10.7321V1.3473C27.8617 0.603053 28.465 0 29.209 0C29.953 0 30.5563 0.603053 30.5563 1.3473V10.7321C30.5563 11.4763 29.953 12.0794 29.209 12.0794C28.465 12.0794 27.8617 11.4763 27.8617 10.7321ZM58.4183 26.1334C58.4183 26.8776 57.8149 27.4807 57.071 27.4807H48.9589C48.2149 27.4807 47.6115 26.8776 47.6115 26.1334C47.6115 25.3891 48.2149 24.7861 48.9589 24.7861H57.071C57.8149 24.7861 58.4183 25.3894 58.4183 26.1334ZM9.45969 27.4807H1.3473C0.603323 27.4807 0 26.8776 0 26.1334C0 25.3891 0.603323 24.7861 1.3473 24.7861H9.45942C10.2034 24.7861 10.8067 25.3891 10.8067 26.1334C10.8067 26.8776 10.2037 27.4807 9.45969 27.4807ZM16.1706 14.8476C15.9073 15.1108 15.5627 15.2423 15.2178 15.2423C14.8729 15.2423 14.5282 15.1108 14.265 14.8476L8.41714 8.99918C7.89089 8.47319 7.89089 7.62008 8.41714 7.09409C8.9434 6.56783 9.79624 6.56783 10.3225 7.09409L16.1706 12.9422C16.6969 13.4682 16.6969 14.3213 16.1706 14.8476ZM44.153 14.8476C43.8898 15.1108 43.5451 15.2423 43.2002 15.2423C42.8553 15.2423 42.5107 15.1108 42.2474 14.8476C41.7211 14.3216 41.7211 13.4685 42.2474 12.9425L48.0955 7.09436C48.6218 6.5681 49.4746 6.5681 50.0009 7.09436C50.5271 7.62035 50.5271 8.47346 50.0009 8.99945L44.153 14.8476ZM51.5042 43.7459C52.0304 44.2718 52.0304 45.125 51.5042 45.651C51.2409 45.9142 50.8963 46.0457 50.5514 46.0457C50.2065 46.0457 49.8618 45.9142 49.5986 45.651L43.9997 40.0521C43.4734 39.5261 43.4734 38.673 43.9997 38.147C44.5262 37.6208 45.3791 37.621 45.9051 38.147L51.5042 43.7459ZM14.4183 38.1467C14.9446 38.6727 14.9446 39.5258 14.4183 40.0518L8.81945 45.6507C8.55618 45.9139 8.21155 46.0454 7.86664 46.0454C7.52173 46.0454 7.17709 45.9139 6.91382 45.6507C6.38757 45.1247 6.38757 44.2716 6.91382 43.7456L12.5127 38.1467C13.0392 37.6205 13.892 37.6205 14.4183 38.1467Z" fill="#2E4EC6"/>
</svg>
