<svg width="60" height="53" viewBox="0 0 60 53" fill="none" xmlns="http://www.w3.org/2000/svg">
<path d="M7.00259 35.0055V35.5055H7.50259H27.0029V50.0048C27.0029 50.7135 27.1466 51.3864 27.3941 52.0014H5.12358C2.58112 52.0014 0.5 49.9223 0.5 47.3748V5.12753C0.5 2.58081 2.58131 0.5 5.12358 0.5H39.8742C42.4186 0.5 44.4998 2.58094 44.4998 5.12753V12.7462C40.874 12.8844 37.6523 14.5185 35.3498 17.0037H7.49963H6.99963V17.5037V20.0053V20.5053H7.49963H33.0313C32.4632 21.7493 32.0889 23.0908 31.9336 24.5034H7.50259H7.00259V25.0034V27.5049V28.0049H7.50259H29.345C28.0586 28.9104 27.176 30.3531 27.0265 32.004H7.50259H7.00259V32.504V35.0055ZM7.50259 9.50115H7.00259V10.0012V12.5027V13.0027H7.50259H37.5031H38.0031V12.5027V10.0012V9.50115H37.5031H7.50259Z" stroke="black"/>
<path d="M57.5034 30.0014H55.2123V25.9478C55.2123 20.3155 50.6301 15.7333 45.0027 15.7333C39.3763 15.7333 34.7941 20.3115 34.7941 25.9478V30.0014H32.503C31.1268 30.0014 30.0034 31.1218 30.0034 32.503V50.0047C30.0034 51.382 31.1287 52.5013 32.503 52.5013H57.5024C58.8796 52.5013 60.001 51.381 60.001 50.0047V32.503C60.003 31.1218 58.8777 30.0014 57.5034 30.0014ZM39.1678 25.9478C39.1678 22.7281 41.7859 20.1109 45.0017 20.1109C48.2185 20.1109 50.8366 22.731 50.8366 25.9478V30.0014H39.1678V25.9478Z" fill="#2E4EC6"/>
</svg>
