<svg width="61" height="61" viewBox="0 0 61 61" fill="none" xmlns="http://www.w3.org/2000/svg">
<path d="M30.7944 55.1606C44.6016 55.1606 55.7944 43.9678 55.7944 30.1606C55.7944 16.3535 44.6016 5.16064 30.7944 5.16064C16.9873 5.16064 5.79445 16.3535 5.79445 30.1606C5.79445 43.9678 16.9873 55.1606 30.7944 55.1606Z" fill="#0077B5"/>
<path fill-rule="evenodd" clip-rule="evenodd" d="M24.2628 18.0155C24.2628 19.5719 23.0778 20.8314 21.2247 20.8314C19.4437 20.8314 18.2586 19.5719 18.2953 18.0155C18.2586 16.3835 19.4436 15.1606 21.2602 15.1606C23.0778 15.1606 24.2273 16.3835 24.2628 18.0155ZM18.4443 41.1845V23.0559H24.0783V41.1833L18.4443 41.1845Z" fill="white"/>
<path fill-rule="evenodd" clip-rule="evenodd" d="M28.5936 28.8412C28.5936 26.5801 28.5191 24.6524 28.4446 23.0582H33.3383L33.5984 25.5417H33.7097C34.4512 24.3922 36.3043 22.6514 39.3071 22.6514C43.0134 22.6514 45.7938 25.0982 45.7938 30.4342V41.1867H40.1597V31.1402C40.1597 28.8035 39.3449 27.2104 37.3061 27.2104C35.7486 27.2104 34.8224 28.2854 34.4523 29.3226C34.3033 29.694 34.2299 30.212 34.2299 30.7322V41.1867H28.5958V28.8412H28.5936Z" fill="white"/>
</svg>
