<svg width="61" height="61" viewBox="0 0 61 61" fill="none" xmlns="http://www.w3.org/2000/svg">
<g clip-path="url(#clip0_340_2)">
<path d="M30.9304 0.218262C28.1933 0.218262 25.9737 2.43686 25.9737 5.17389C25.9737 7.91115 28.1933 10.1295 30.9304 10.1295C33.6676 10.1295 35.885 7.91115 35.885 5.17389C35.885 2.43686 33.6676 0.218262 30.9304 0.218262Z" fill="white"/>
<path d="M30.9304 50.3071C28.1933 50.3071 25.9737 52.5256 25.9737 55.2628C25.9737 58 28.1933 60.2184 30.9304 60.2184C33.6676 60.2184 35.885 58 35.885 55.2628C35.885 52.5256 33.6676 50.3071 30.9304 50.3071Z" fill="white"/>
<path d="M9.71642 9.00542C7.78048 10.9403 7.78048 14.078 9.71642 16.0139C11.6524 17.9499 14.7891 17.9499 16.7249 16.0139C18.6609 14.0791 18.6609 10.9414 16.7249 9.00542C14.7891 7.06948 11.6524 7.06948 9.71642 9.00542Z" fill="white"/>
<path d="M45.1339 44.4227C43.1999 46.3586 43.1999 49.4965 45.1339 51.4323C47.0697 53.3682 50.2086 53.3682 52.1424 51.4323C54.0783 49.4975 54.0783 46.3586 52.1424 44.4227C50.2065 42.4869 47.0697 42.4878 45.1339 44.4227Z" fill="white"/>
<path d="M10.8406 30.2182C10.8427 27.4821 8.62318 25.2637 5.88603 25.2637C3.14888 25.2626 0.92935 27.4823 0.931459 30.2193C0.92935 32.9554 3.14677 35.1739 5.88603 35.1739C8.62318 35.1739 10.8406 32.9555 10.8406 30.2182Z" fill="white"/>
<path d="M55.9748 25.2627C53.2376 25.2627 51.0202 27.4823 51.0181 30.2183C51.0181 32.9556 53.2376 35.1739 55.9748 35.175C58.7119 35.175 60.9315 32.9555 60.9293 30.2183C60.9315 27.4822 58.7119 25.2627 55.9748 25.2627Z" fill="white"/>
<path d="M9.71841 44.4237C7.78259 46.3586 7.78259 49.4975 9.71841 51.4323C11.6524 53.3682 14.7891 53.3682 16.7249 51.4323C18.6609 49.4964 18.6609 46.3586 16.7249 44.4227C14.7911 42.4869 11.6544 42.4869 9.71841 44.4237Z" fill="white"/>
<path d="M52.1444 16.0149C54.0803 14.079 54.0803 10.9402 52.1444 9.00429C50.2086 7.06941 47.0697 7.06835 45.1339 9.00429C43.1979 10.9402 43.1999 14.0779 45.1339 16.0139C47.0697 17.9498 50.2086 17.9498 52.1444 16.0149Z" fill="white"/>
</g>
<defs>
<clipPath id="clip0_340_2">
<rect width="60" height="60" fill="white" transform="translate(0.930405 0.218262)"/>
</clipPath>
</defs>
</svg>
