<svg width="79" height="80" viewBox="0 0 79 80" fill="none" xmlns="http://www.w3.org/2000/svg">
<circle cx="39.1058" cy="40.0608" r="38.485" fill="#111C55" stroke="#273270" stroke-width="1.24145"/>
<path d="M39.5 22C32.2512 22 26.375 27.8762 26.375 35.125C26.375 38.2302 27.7433 40.9607 29.2576 43.3281L38.6075 56.5384C38.8126 56.8283 39.1456 57 39.5 57C39.8544 57 40.1874 56.8283 40.3925 56.5384L49.7424 43.3281C51.1895 41.3802 52.625 38.2302 52.625 35.125C52.625 27.8762 46.7488 22 39.5 22ZM48.2976 43.3281H48.2921L39.5 55.3594L30.7079 43.3281H30.7024C29.3659 41.3971 27.4688 38.2963 27.4688 35.125C27.4688 28.4805 32.8555 23.0938 39.5 23.0938C46.1445 23.0938 51.5312 28.4805 51.5312 35.125C51.5312 38.2963 49.4974 41.5677 48.2976 43.3281Z" fill="white"/>
<path d="M39.5 29.6562C36.4796 29.6562 34.0312 32.1052 34.0312 35.125C34.0312 38.1448 36.4796 40.5938 39.5 40.5938C42.5204 40.5938 44.9688 38.1448 44.9688 35.125C44.9688 32.1052 42.5204 29.6562 39.5 29.6562ZM39.5 39.5C37.0839 39.5 35.125 37.5411 35.125 35.125C35.125 32.7089 37.0839 30.75 39.5 30.75C41.9161 30.75 43.875 32.7089 43.875 35.125C43.875 37.5411 41.9161 39.5 39.5 39.5Z" fill="white"/>
<path d="M39.5 27.4688C35.2716 27.4688 31.8438 30.8966 31.8438 35.125C31.8438 39.3534 35.2716 42.7812 39.5 42.7812C43.7284 42.7812 47.1562 39.3534 47.1562 35.125C47.1562 30.8966 43.7284 27.4688 39.5 27.4688ZM39.5 41.6875C35.8759 41.6875 32.9375 38.7491 32.9375 35.125C32.9375 31.5009 35.8759 28.5625 39.5 28.5625C43.1241 28.5625 46.0625 31.5009 46.0625 35.125C46.0625 38.7491 43.1241 41.6875 39.5 41.6875Z" fill="white"/>
</svg>
