<svg width="60" height="60" viewBox="0 0 60 60" fill="none" xmlns="http://www.w3.org/2000/svg">
<g clip-path="url(#clip0_94_80)">
<path d="M39.8775 41.3231L41.2069 39.9938C42.675 38.5256 42.675 36.1444 41.2069 34.6763L38.9119 32.3831C39.6506 31.0969 40.23 29.7131 40.6331 28.2525H43.1156C45.1912 28.2525 46.875 26.5688 46.875 24.4931V22.6144C46.875 20.5388 45.1931 18.855 43.1156 18.855H40.6631C40.2731 17.4094 39.72 16.0331 39 14.7563L41.2069 12.5513C42.675 11.0831 42.675 8.70188 41.2069 7.23375L39.8775 5.90625C38.4094 4.43813 36.0281 4.43813 34.56 5.90625L32.3981 8.06813C31.0762 7.2975 29.6475 6.6975 28.1381 6.285V3.75938C28.1362 1.68188 26.4525 0 24.3769 0H22.4981C20.4225 0 18.7369 1.68188 18.7369 3.75938V6.285C17.2275 6.6975 15.8006 7.2975 14.4769 8.06813L12.3131 5.90438C10.8469 4.43625 8.46562 4.43625 6.9975 5.90438L5.66813 7.23188C4.2 8.7 4.2 11.0813 5.66813 12.5494L7.87312 14.7563C7.155 16.0331 6.59812 17.4094 6.21 18.8569H3.75938C1.68188 18.855 0 20.5388 0 22.6163V24.495C0 26.5706 1.68188 28.2544 3.75938 28.2544H6.24C6.645 29.715 7.2225 31.0988 7.96313 32.385L5.66813 34.6781C4.2 36.1463 4.2 38.5275 5.66813 39.9956L6.9975 41.325C8.46562 42.7931 10.8469 42.7931 12.3131 41.325L14.6213 39.0169C15.9037 39.7463 17.2819 40.3144 18.735 40.71V43.1175C18.735 45.1913 20.4188 46.8769 22.4963 46.8769H24.375C26.4506 46.8769 28.1344 45.1931 28.1344 43.1175V40.71C29.5875 40.3144 30.9694 39.7444 32.2481 39.0169L34.5563 41.325C36.0281 42.7913 38.4075 42.7913 39.8775 41.3231ZM23.4375 33.9506C17.7281 33.9506 13.0988 29.3231 13.0988 23.6119C13.0988 17.9006 17.7281 13.2731 23.4375 13.2731C29.1469 13.2731 33.7762 17.9025 33.7762 23.6119C33.7762 29.3231 29.1469 33.9506 23.4375 33.9506ZM23.4375 18.7969C20.8406 18.7969 18.7369 20.9006 18.7369 23.4956C18.7369 26.0906 20.8406 28.1944 23.4375 28.1944C26.0325 28.1944 28.1362 26.0906 28.1362 23.4956C28.1362 20.9006 26.0325 18.7969 23.4375 18.7969ZM46.9912 54.1163C45.7313 54.1163 44.7113 55.1363 44.7113 56.3963C44.7113 57.6544 45.7313 58.6744 46.9912 58.6744C48.2494 58.6744 49.2712 57.6544 49.2712 56.3963C49.2712 55.1363 48.2494 54.1163 46.9912 54.1163ZM56.535 54.1444H55.3462C55.1569 53.4431 54.8869 52.7756 54.5381 52.155L55.6069 51.0863C56.3194 50.3738 56.3194 49.2188 55.6069 48.5081L54.9619 47.8631C54.2494 47.1506 53.0962 47.1506 52.3838 47.8631L51.3338 48.9113C50.6925 48.5381 49.9987 48.2475 49.2675 48.0469V46.8244C49.2675 45.8175 48.45 45 47.4431 45H46.5319C45.525 45 44.7075 45.8175 44.7075 46.8244V48.0469C43.9744 48.2475 43.2825 48.5381 42.6413 48.9113L41.5912 47.8631C40.8787 47.1506 39.7237 47.1506 39.0131 47.8631L38.3681 48.5081C37.6556 49.2188 37.6556 50.3738 38.3681 51.0863L39.4369 52.155C39.0863 52.7738 38.8181 53.4431 38.6287 54.1444H37.44C36.4331 54.1444 35.6156 54.9619 35.6156 55.9688V56.88C35.6156 57.8869 36.4331 58.7044 37.44 58.7044H38.6438C38.8388 59.4113 39.12 60.0825 39.4781 60.7069L38.3662 61.8188C37.6538 62.5313 37.6538 63.6844 38.3662 64.3988L39.0112 65.0438C39.7219 65.7544 40.8769 65.7544 41.5894 65.0438L42.7087 63.9225C43.3312 64.275 43.9987 64.5525 44.7037 64.7438V65.9119C44.7037 66.9188 45.5213 67.7363 46.5281 67.7363H47.4394C48.4463 67.7363 49.2638 66.9188 49.2638 65.9119V64.7438C49.9688 64.5525 50.6362 64.2769 51.2569 63.9225L52.3781 65.0438C53.0906 65.7544 54.2437 65.7544 54.9562 65.0438L55.6012 64.3988C56.3137 63.6844 56.3137 62.5313 55.6012 61.8188L54.4894 60.7069C54.8456 60.0825 55.1287 59.4113 55.3237 58.7044H56.5275C57.5344 58.7044 58.3519 57.8869 58.3519 56.88V55.9688C58.3594 54.96 57.5419 54.1444 56.535 54.1444ZM46.9912 61.4663C44.2219 61.4663 41.9775 59.2219 41.9775 56.4506C41.9775 53.6813 44.2219 51.4369 46.9912 51.4369C49.7606 51.4369 52.005 53.6813 52.005 56.4506C52.005 59.2219 49.7606 61.4663 46.9912 61.4663Z" fill="black"/>
</g>
<defs>
<clipPath id="clip0_94_80">
<rect width="60" height="60" fill="white"/>
</clipPath>
</defs>
</svg>
