<svg width="79" height="79" viewBox="0 0 79 79" fill="none" xmlns="http://www.w3.org/2000/svg">
<circle cx="39.1058" cy="39.1507" r="38.485" fill="#111C55" stroke="#273270" stroke-width="1.24145"/>
<path d="M29.7627 27.5318C29.5956 27.5368 29.4312 27.5733 29.2794 27.6389C29.1276 27.7046 28.9914 27.7981 28.8789 27.9139C28.7664 28.0298 28.6798 28.1656 28.6243 28.3134C28.5688 28.4611 28.5455 28.6178 28.5558 28.7741C28.7228 31.4556 29.5098 37.9982 33.2783 42.0784C37.791 46.9943 43.6679 48.6881 49.6975 48.4378C50.0207 48.4197 50.3245 48.2874 50.5476 48.0676C50.7707 47.8478 50.8965 47.5568 50.8996 47.2535V42.9588C50.8958 42.5581 50.7485 42.1702 50.4812 41.8574C50.2138 41.5445 49.8421 41.3249 49.4256 41.2338L46.406 40.6081C46.0326 40.5335 45.6438 40.5656 45.29 40.7003C44.9362 40.8349 44.6337 41.0659 44.4216 41.3634L43.7538 42.3108C43.6924 42.3975 43.6008 42.4614 43.4946 42.4916C43.3883 42.5218 43.2742 42.5163 43.1718 42.4761C41.6358 41.8549 35.5156 39.1735 34.843 34.6509C34.8298 34.5635 34.8445 34.4745 34.8852 34.395C34.926 34.3155 34.991 34.249 35.0719 34.204L36.2836 33.5113C36.6159 33.3183 36.877 33.0344 37.0314 32.6979C37.1858 32.3614 37.2262 31.9885 37.147 31.6298L36.4839 28.7518C36.387 28.3485 36.1439 27.9892 35.796 27.735C35.4481 27.4808 35.0169 27.3474 34.5758 27.3575L29.7627 27.5318Z" stroke="white" stroke-width="1.24145"/>
</svg>
