<svg width="60" height="60" viewBox="0 0 60 60" fill="none" xmlns="http://www.w3.org/2000/svg">
<g clip-path="url(#clip0_71_114)">
<path d="M50.6539 24.9935C49.3165 19.4766 45.9109 14.8108 41.0643 11.8555C36.2176 8.89999 30.5102 8.00878 24.9935 9.34624C19.4766 10.6836 14.8109 14.0892 11.8555 18.9358C8.90015 23.7824 8.00894 29.4898 9.34628 35.0065C10.6836 40.5235 14.0892 45.1892 18.9359 48.1446C19.4744 48.473 20.0246 48.773 20.583 49.0502C20.6169 49.0679 20.651 49.0856 20.6859 49.1015C23.5993 50.5285 26.7581 51.2602 29.9613 51.2602C31.6409 51.2602 33.3329 51.0596 35.0067 50.6538C40.5237 49.3164 45.1894 45.9108 48.1447 41.0642C51.1001 36.2176 51.9913 30.5102 50.6539 24.9935ZM24.1844 13.9635L24.1828 13.9703L20.272 17.3779L19.0645 16.8964C20.602 15.6154 22.3392 14.6306 24.1844 13.9635ZM19.5923 35.0023L19.3021 35.3235C18.283 36.4512 17.8457 37.9572 18.1021 39.4553L18.668 42.7628C13.8978 38.5314 11.9283 31.9754 13.4357 25.8876L17.8792 28.4306C18.1651 28.5942 18.3087 28.9317 18.2282 29.2514C17.8153 30.8927 18.2631 32.6068 19.4258 33.8362L19.581 34.0004C19.8439 34.2783 19.849 34.7185 19.5923 35.0023ZM31.2277 47.0138L31.0664 46.0296C31.702 45.8208 32.4056 46.0564 32.7857 46.6223L32.9092 46.8063C32.3529 46.903 31.7918 46.9724 31.2277 47.0138ZM44.5706 38.8849C42.7275 41.9075 40.0882 44.1522 37.0857 45.5178L36.2612 44.2894C34.7175 41.9898 31.7591 41.1353 29.2268 42.2578L27.8897 42.8506C27.0187 43.2369 26.5185 44.1624 26.6726 45.1026L26.949 46.7893C25.7562 46.5739 24.5752 46.2283 23.4259 45.748L22.2284 38.7492C22.19 38.5246 22.2554 38.2991 22.4082 38.1299L22.6983 37.8089C24.4098 35.915 24.3763 32.9786 22.6225 31.1242L22.4673 30.9602C22.293 30.7758 22.2259 30.5189 22.2878 30.273C22.8244 28.141 21.8665 25.8895 19.9586 24.7975L14.9596 21.9366C15.108 21.6602 15.264 21.3862 15.4294 21.115C15.6218 20.7994 15.8235 20.4929 16.0328 20.1943L19.9085 21.7396C20.1594 21.8397 20.4223 21.8885 20.6834 21.8885C21.1805 21.8885 21.671 21.7113 22.0586 21.3734L27.4273 16.6954C27.7493 16.4148 27.9777 16.0423 28.082 15.6283L28.7463 12.9882C29.1722 12.9562 29.5996 12.9382 30.028 12.9382C33.0541 12.9382 36.1178 13.7421 38.8848 15.4294C39.017 15.5101 39.1474 15.5923 39.2767 15.676L37.3734 17.756L31.0328 18.0021C30.3376 18.029 29.7013 18.3997 29.335 18.9909L26.4708 23.6129C26.0162 24.3464 26.0583 25.2836 26.5769 25.9734L28.39 28.3843C28.6921 28.7859 28.8568 29.2838 28.8541 29.7864L28.838 32.9296C28.8307 34.3394 29.4434 35.6704 30.5191 36.5815C31.3857 37.3156 32.4718 37.7085 33.5878 37.7085C33.857 37.7085 34.128 37.6857 34.398 37.6392L37.8896 37.0383C39.2974 36.7961 40.6051 36.0835 41.572 35.032C41.9962 34.5707 42.5747 34.3055 43.2009 34.2856C43.8302 34.2662 44.4216 34.4933 44.8743 34.9265L45.8563 35.8665C45.8979 35.9062 45.9415 35.9424 45.9853 35.9782C45.613 36.9723 45.1433 37.9456 44.5706 38.8849ZM47.0159 31.2813C45.8695 30.4706 44.4987 30.057 43.0671 30.1016C41.3073 30.1578 39.6819 30.9026 38.4901 32.1987C38.1462 32.5729 37.6807 32.8266 37.1796 32.9129L33.6881 33.5137C33.4721 33.551 33.317 33.4654 33.2248 33.3873C33.1325 33.3091 33.0228 33.17 33.024 32.9511L33.0402 29.8079C33.0475 28.3958 32.5841 26.9968 31.7355 25.8683L30.7828 24.6011L32.3071 22.1416L38.4089 21.9048C38.9677 21.8831 39.4945 21.6386 39.8719 21.2262L42.4883 18.3669C45.7525 21.8735 47.3614 26.5885 47.0159 31.2813Z" fill="black"/>
<path d="M51.6123 8.08488L51.0825 8.65723C45.4312 3.07453 37.9455 0 30 0C22.7159 0 15.692 2.64293 10.2224 7.44176C3.72598 13.142 0 21.3641 0 30C0 31.1559 0.937149 32.093 2.09297 32.093C3.24891 32.093 4.18594 31.1558 4.18594 30C4.18594 22.569 7.3923 15.4938 12.9831 10.5885C17.6889 6.45973 23.7322 4.18605 30 4.18605C36.846 4.18605 43.2953 6.83836 48.1602 11.6541C48.1863 11.6798 48.2142 11.7025 48.2413 11.7266L47.6201 12.3977C46.8356 13.2452 47.4893 14.6161 48.6416 14.5397L52.4964 14.2846C53.151 14.2413 53.6664 13.7089 53.6885 13.0534L53.826 8.99555C53.8661 7.81336 52.4159 7.21676 51.6123 8.08488Z" fill="#2E4EC6"/>
<path d="M57.907 27.907C56.7511 27.907 55.8141 28.8441 55.8141 30C55.8141 36.3331 53.4983 42.4238 49.2936 47.1503C44.3954 52.6563 37.3633 55.8139 30 55.8139C23.7327 55.8139 17.6897 53.5405 12.9842 49.4123C12.9077 49.3453 12.8268 49.2871 12.744 49.2331L13.2737 48.6609C14.0582 47.8134 13.4045 46.4425 12.2521 46.5189L8.39732 46.7741C7.74271 46.8173 7.22732 47.3497 7.20517 48.0052L7.06771 52.0631C7.02763 53.2455 8.47782 53.8421 9.28138 52.974L9.94302 52.2591C10.0252 52.366 10.1184 52.4669 10.2236 52.5591C15.6929 57.3575 22.7165 60 30 60C38.5573 60 46.7295 56.3306 52.421 49.9328C57.3083 44.4389 60 37.3601 60 30C60 28.844 59.0629 27.907 57.907 27.907Z" fill="#2E4EC6"/>
</g>
<defs>
<clipPath id="clip0_71_114">
<rect width="60" height="60" fill="white"/>
</clipPath>
</defs>
</svg>
