<svg width="76" height="66" viewBox="0 0 76 66" fill="none" xmlns="http://www.w3.org/2000/svg">
<path d="M17.3044 55.436H53.1739" stroke="#1C1F35" stroke-width="2" stroke-linecap="round" stroke-linejoin="round"/>
<path d="M34.3333 40.478L49.8554 31.1332" stroke="#1C1F35" stroke-width="2" stroke-linecap="round" stroke-linejoin="round"/>
<path d="M9.69568 37.8892L15.7109 43.9044" stroke="#1C1F35" stroke-width="2" stroke-linecap="round" stroke-linejoin="round"/>
<path d="M1 35.7153L7.01521 41.7305" stroke="#1C1F35" stroke-width="2" stroke-linecap="round" stroke-linejoin="round"/>
<path d="M15.7683 35.4448L25.2258 44.517C26.4869 45.728 28.0958 46.4898 29.8133 46.6889C31.5309 46.888 33.2653 46.5138 34.7586 45.6221L72.7392 23.006L68.0731 17.1463C66.8594 15.6276 65.1554 14.6037 63.2691 14.2597C61.3828 13.9156 59.4386 14.274 57.7878 15.2702L46.6495 21.978L31.5977 16.8379L27.4585 18.6626C27.1488 18.7986 26.8775 19.0122 26.6697 19.2839C26.4618 19.5555 26.324 19.8764 26.269 20.2169C26.214 20.5574 26.2436 20.9067 26.355 21.2324C26.4665 21.5581 26.6561 21.8499 26.9066 22.0808L34.6081 29.174L27.5839 33.286L20.5598 30.202L16.3453 32.0524C16.0387 32.1873 15.7697 32.3985 15.5628 32.6667C15.3559 32.9349 15.2175 33.2518 15.1603 33.5886C15.103 33.9254 15.1286 34.2715 15.2347 34.5956C15.3409 34.9197 15.5243 35.2116 15.7683 35.4448V35.4448Z" stroke="#1C1F35" stroke-width="2" stroke-linecap="round" stroke-linejoin="round"/>
<path d="M68.9348 18.4798C62.9048 23.2158 56.9524 23.8111 52.6305 18.4798L56.0264 16.2724C60.2464 13.5294 65.866 14.4903 68.9348 18.4798Z" fill="black" stroke="#1C1F35" stroke-width="2"/>
</svg>
