<svg width="174" height="111" viewBox="0 0 174 111" fill="none" xmlns="http://www.w3.org/2000/svg">
<g filter="url(#filter0_i_7_21)">
<mask id="mask0_7_21" style="mask-type:luminance" maskUnits="userSpaceOnUse" x="45" y="18" width="83" height="73">
<path d="M127.173 18.095H45.7697V90.1596H127.173V18.095Z" fill="white"/>
</mask>
<g mask="url(#mask0_7_21)">
<path d="M116.35 28.2713L112.375 48.4055C112.366 48.4458 112.37 48.4874 112.383 48.5262C112.396 48.5649 112.42 48.5994 112.452 48.6258C112.483 48.6523 112.521 48.6698 112.561 48.6767C112.602 48.6835 112.644 48.6793 112.682 48.6646L116.932 47.0628C116.942 47.1218 116.952 47.1829 116.962 47.2396C117.982 53.6703 117.235 60.2573 114.799 66.2956C112.362 72.3338 108.33 77.5955 103.132 81.5175C97.9349 85.4392 91.7687 87.8735 85.2937 88.5595C78.8189 89.2456 72.2794 88.1575 66.3756 85.4116C72.5661 88.8449 79.5966 90.4702 86.6657 90.1023C93.7351 89.7343 100.559 87.3885 106.36 83.3313C112.161 79.2741 116.705 73.6693 119.476 67.155C122.246 60.641 123.132 53.4795 122.03 46.487L126.925 46.8843C126.967 46.8876 127.008 46.8795 127.045 46.861C127.083 46.8425 127.114 46.8142 127.136 46.7791C127.159 46.7441 127.171 46.7036 127.173 46.662C127.174 46.6204 127.164 46.5793 127.143 46.543L116.775 28.2017C116.752 28.161 116.716 28.1284 116.674 28.1082C116.632 28.088 116.584 28.0813 116.538 28.0888C116.492 28.0964 116.449 28.118 116.415 28.1506C116.382 28.1832 116.359 28.2254 116.35 28.2713Z" fill="url(#paint0_linear_7_21)"/>
<path d="M108.757 70.2766C105.546 74.3608 101.422 77.6353 96.7168 79.8375C92.0111 82.0397 86.8549 83.1083 81.6618 82.9575C76.4685 82.8066 71.3829 81.4407 66.8131 78.9692C62.2433 76.4974 58.3164 72.989 55.3476 68.7253C52.3788 64.4619 50.4507 59.5617 49.7181 54.4181C48.9855 49.2747 49.4688 44.031 51.1291 39.1081C52.7894 34.1851 55.5805 29.7199 59.2785 26.0706C62.9765 22.4214 67.4784 19.6898 72.423 18.095C66.0515 19.6609 60.2483 22.9862 55.6756 27.6915C51.1029 32.3968 47.9447 38.2925 46.5614 44.7062C45.1781 51.1199 45.6253 57.7933 47.852 63.965C50.0787 70.137 53.9953 75.5584 59.155 79.6116C64.3147 83.6647 70.5096 86.186 77.0332 86.8877C83.5567 87.5895 90.1462 86.4437 96.0499 83.5807C101.954 80.7178 106.934 76.2534 110.422 70.6964C113.911 65.1395 115.767 58.7139 115.78 52.1528C115.311 58.762 112.864 65.077 108.757 70.2766Z" fill="url(#paint1_linear_7_21)"/>
<path d="M103.915 36.2573C101.867 38.8651 99.5389 41.2397 96.9715 43.3382C96.9455 43.3595 96.9244 43.3864 96.91 43.4168C96.8957 43.4473 96.8882 43.4806 96.8882 43.5143V76.0931C96.8882 76.3553 96.8049 76.6106 96.6503 76.8222C96.4957 77.0341 96.2779 77.1911 96.0284 77.271L96.0018 77.2795C95.8168 77.3389 95.6206 77.3536 95.4287 77.3226C95.2369 77.2918 95.055 77.2157 94.8983 77.1014C94.7413 76.9867 94.6137 76.8369 94.5256 76.6638C94.4376 76.4904 94.3918 76.2989 94.3918 76.1047V45.7311C94.3918 45.6894 94.3806 45.6484 94.3591 45.6127C94.3376 45.5769 94.3065 45.5478 94.2693 45.5285C94.2324 45.5091 94.1908 45.5003 94.1491 45.503C94.1075 45.5057 94.0672 45.5198 94.0331 45.5438C90.6336 47.8844 86.9276 49.7451 83.0199 51.0731C82.9748 51.0882 82.9356 51.1172 82.9076 51.1559C82.8799 51.1946 82.8649 51.2411 82.8649 51.2888V77.6004C82.8649 77.783 82.8243 77.9635 82.7461 78.1284C82.668 78.2936 82.5543 78.4393 82.4134 78.5554C82.2721 78.6714 82.107 78.7544 81.9299 78.7991C81.7528 78.8435 81.5679 78.8482 81.3887 78.8127L81.3403 78.8032C81.0608 78.7479 80.8093 78.597 80.6287 78.3765C80.4481 78.156 80.3498 77.8799 80.3505 77.5949C80.3569 74.762 80.3634 70.9478 80.3682 70.9505V52.184C80.3682 52.149 80.3602 52.1145 80.3447 52.0831C80.3292 52.0517 80.3066 52.0243 80.2789 52.003C80.2511 51.9817 80.2187 51.9671 80.1844 51.9603C80.1501 51.9536 80.1146 51.9547 80.0808 51.9639L79.9678 51.9936C76.7799 52.8313 73.9592 54.7012 71.9462 57.3112C69.9331 59.9216 68.8412 63.1249 68.841 66.4209V70.7423C68.8416 70.9836 68.7714 71.2202 68.6391 71.4219C68.5068 71.624 68.3182 71.7827 68.0966 71.8786C67.875 71.9741 67.6303 72.0032 67.3925 71.9612C67.1548 71.9195 66.9345 71.8089 66.7589 71.6431C61.8626 66.937 58.7493 60.679 57.9495 53.935C57.1496 47.191 58.7127 40.3784 62.3725 34.6576C66.0322 28.9368 71.5622 24.6619 78.0203 22.561C84.4783 20.4602 91.465 20.6634 97.7903 23.1361C92.8102 20.7686 87.2873 19.7768 81.7946 20.2636C76.3019 20.7504 71.0396 22.698 66.5534 25.9044C62.0672 29.1108 58.5208 33.4591 56.2818 38.4984C54.0429 43.5376 53.1932 49.0841 53.8207 54.5626C54.4483 60.0407 56.5302 65.2516 59.8507 69.6539C63.1711 74.0565 67.6091 77.4901 72.7041 79.5991C77.7991 81.7078 83.3656 82.415 88.826 81.6474C94.2867 80.8794 99.4419 78.6643 103.758 75.232C105.263 74.193 106.668 73.0145 107.952 71.7117L108.087 71.5673C108.299 71.3393 108.417 71.0389 108.417 70.727V30.5426C108.417 30.5426 108.417 30.3993 108.417 30.2091C108.417 30.1583 108.4 30.1088 108.37 30.0685C108.339 30.0281 108.295 29.9992 108.246 29.9862C108.197 29.9733 108.145 29.9771 108.098 29.997C108.051 30.0169 108.013 30.0518 107.988 30.0962C106.8 32.2575 105.438 34.318 103.915 36.2573Z" fill="url(#paint2_linear_7_21)"/>
</g>
</g>
<mask id="path-5-inside-1_7_21" fill="white">
<path d="M5.96029 97.508L2.48102 104.364H5.97497V106.067H0.352347V104.393L3.81694 97.552H0.352347V95.7904H5.96029V97.508ZM11.2875 106.067H8.08713C7.10843 105.157 6.61908 103.914 6.61908 102.338C6.61908 101.545 6.72674 100.855 6.94205 100.268C7.16715 99.6807 7.51948 99.1131 7.99904 98.565H11.4343C11.9432 99.1522 12.2906 99.7247 12.4766 100.283C12.6625 100.831 12.7555 101.516 12.7555 102.338C12.7555 103.914 12.2662 105.157 11.2875 106.067ZM9.12944 104.525H10.2452C10.5975 103.84 10.7737 103.062 10.7737 102.191C10.7737 101.32 10.5926 100.625 10.2305 100.106H9.12944C8.77711 100.606 8.60094 101.315 8.60094 102.235C8.60094 103.145 8.77711 103.909 9.12944 104.525ZM15.6268 102.25C15.6268 102.661 15.6904 103.082 15.8177 103.512C15.9449 103.933 16.1211 104.271 16.3462 104.525H18.5482V106.067H15.3332C14.1783 105.147 13.6009 103.874 13.6009 102.25C13.6009 100.625 14.2175 99.3969 15.4507 98.565H18.5482V100.106H16.3462C15.8666 100.606 15.6268 101.32 15.6268 102.25ZM19.5413 106.067V98.565H20.936L21.303 99.3577C21.6945 98.8292 22.1887 98.565 22.7857 98.565H23.3583V100.532H21.4939V106.067H19.5413ZM28.3908 106.067H25.1905C24.2118 105.157 23.7224 103.914 23.7224 102.338C23.7224 101.545 23.8301 100.855 24.0454 100.268C24.2705 99.6807 24.6228 99.1131 25.1024 98.565H28.5376C29.0465 99.1522 29.394 99.7247 29.5799 100.283C29.7659 100.831 29.8589 101.516 29.8589 102.338C29.8589 103.914 29.3695 105.157 28.3908 106.067ZM26.2328 104.525H27.3485C27.7008 103.84 27.877 103.062 27.877 102.191C27.877 101.32 27.6959 100.625 27.3338 100.106H26.2328C25.8804 100.606 25.7043 101.315 25.7043 102.235C25.7043 103.145 25.8804 103.909 26.2328 104.525ZM34.1688 98.565H35.2112L35.5782 99.0788C35.7837 98.8928 35.9794 98.7607 36.1654 98.6824C36.3611 98.6041 36.6498 98.565 37.0315 98.565H38.6611C39.0917 99.1131 39.3853 99.6611 39.5419 100.209C39.6985 100.757 39.7768 101.442 39.7768 102.264V106.067H37.8243V102.118C37.8243 101.217 37.6873 100.547 37.4132 100.106H36.0039C36.2192 100.527 36.3269 101.1 36.3269 101.824V106.067H34.3744V102.118C34.3744 101.188 34.2471 100.517 33.9927 100.106H32.8623V106.067H30.9098V98.565H32.4365L32.7008 99.0935C32.9161 98.8977 33.1167 98.7607 33.3027 98.6824C33.4984 98.6041 33.7871 98.565 34.1688 98.565ZM41.708 98.565H44.9523V100.106H42.6622L44.0568 102.176C44.6832 103.067 45.0306 103.679 45.0992 104.011C45.1383 104.168 45.1579 104.33 45.1579 104.496C45.1579 105.191 44.8985 105.714 44.3798 106.067H40.6363V104.525H43.3228L41.752 102.22C41.6835 102.113 41.5758 101.961 41.429 101.765C41.292 101.57 41.1844 101.413 41.1061 101.296C41.0278 101.168 40.9739 101.075 40.9446 101.017C40.9152 100.958 40.8761 100.885 40.8271 100.796C40.7782 100.699 40.7439 100.615 40.7244 100.547C40.6852 100.361 40.6656 100.209 40.6656 100.092C40.6656 99.3773 41.0131 98.8684 41.708 98.565ZM48.5309 106.067V95.7904H50.5422V106.067H48.5309ZM55.143 98.565H56.6991C57.1298 99.1131 57.4234 99.6611 57.58 100.209C57.7366 100.757 57.8149 101.442 57.8149 102.264V106.067H55.8624V102.118C55.8624 101.188 55.7351 100.517 55.4807 100.106H53.8364V106.067H51.8839V98.565H53.4107L53.675 99.0935C53.8903 98.8977 54.0909 98.7607 54.2769 98.6824C54.4726 98.6041 54.7613 98.565 55.143 98.565ZM59.2345 102.793V100.106H58.2216V98.565H59.2345V96.5244H61.187V98.565H62.3908V100.106H61.187V103.263C61.187 103.86 61.2898 104.281 61.4953 104.525H62.3908V106.067H60.3062C59.7875 105.587 59.4743 105.068 59.3666 104.511C59.2785 104.041 59.2345 103.468 59.2345 102.793ZM66.6152 100.106H65.5142C65.3674 100.283 65.2451 100.527 65.1472 100.84C65.0591 101.154 65.0151 101.457 65.0151 101.751H67.1144C67.1339 101.457 67.0948 101.154 66.9969 100.84C66.8991 100.517 66.7718 100.273 66.6152 100.106ZM68.6118 104.525V106.067H64.8829C64.1978 105.607 63.7134 105.039 63.4296 104.364C63.1555 103.679 63.0185 102.989 63.0185 102.294C63.0185 100.689 63.6253 99.4458 64.8389 98.565H67.2171C67.8729 99.0445 68.3182 99.5535 68.5531 100.092C68.7879 100.63 68.9054 101.173 68.9054 101.721C68.9054 102.269 68.8613 102.739 68.7733 103.131H65.1178C65.1472 103.356 65.2304 103.615 65.3674 103.909C65.5142 104.193 65.6708 104.398 65.8372 104.525H68.6118ZM75.5718 98.565V105.289C75.5718 106.032 75.4739 106.629 75.2782 107.08C75.0923 107.53 74.7155 107.926 74.1478 108.269H70.8007V106.742H73.311C73.5557 106.595 73.678 106.36 73.678 106.037V105.171C73.3159 105.475 72.7385 105.626 71.9457 105.626H70.8741C70.0813 104.677 69.6849 103.576 69.6849 102.323C69.6849 101.423 69.8122 100.689 70.0666 100.121C70.3211 99.5437 70.693 99.025 71.1824 98.565H72.2687C72.9049 98.565 73.4089 98.7705 73.7808 99.1816L74.045 98.565H75.5718ZM73.6193 100.106H72.1953C71.843 100.713 71.6668 101.413 71.6668 102.206C71.6668 102.989 71.8185 103.635 72.1219 104.144H73.6193V100.106ZM76.7866 106.067V98.565H78.1813L78.5483 99.3577C78.9398 98.8292 79.434 98.565 80.031 98.565H80.6036V100.532H78.7391V106.067H76.7866ZM84.6969 102.676H83.1261C82.9206 102.93 82.8178 103.248 82.8178 103.63C82.8178 104.011 82.9254 104.31 83.1408 104.525H84.6969V102.676ZM81.5406 98.565H85.1813C85.7686 98.9173 86.1552 99.3235 86.3411 99.7835C86.5271 100.234 86.62 100.85 86.62 101.633V103.835C86.62 104.648 86.6396 105.391 86.6788 106.067H85.0052L84.7409 105.538C84.3592 105.891 83.821 106.067 83.1261 106.067H82.2012C81.3693 105.519 80.9534 104.731 80.9534 103.703C80.9534 102.666 81.3791 101.849 82.2306 101.252H83.6105C83.9922 101.252 84.3495 101.369 84.6822 101.604V100.87C84.6822 100.488 84.5158 100.234 84.1831 100.106H81.5406V98.565ZM88.0937 102.793V100.106H87.0807V98.565H88.0937V96.5244H90.0462V98.565H91.25V100.106H90.0462V103.263C90.0462 103.86 90.149 104.281 90.3545 104.525H91.25V106.067H89.1654C88.6467 105.587 88.3335 105.068 88.2258 104.511C88.1377 104.041 88.0937 103.468 88.0937 102.793ZM95.4744 100.106H94.3734C94.2266 100.283 94.1042 100.527 94.0064 100.84C93.9183 101.154 93.8743 101.457 93.8743 101.751H95.9736C95.9931 101.457 95.954 101.154 95.8561 100.84C95.7582 100.517 95.631 100.273 95.4744 100.106ZM97.471 104.525V106.067H93.7421C93.057 105.607 92.5726 105.039 92.2888 104.364C92.0147 103.679 91.8777 102.989 91.8777 102.294C91.8777 100.689 92.4845 99.4458 93.6981 98.565H96.0763C96.7321 99.0445 97.1774 99.5535 97.4122 100.092C97.6471 100.63 97.7646 101.173 97.7646 101.721C97.7646 102.269 97.7205 102.739 97.6325 103.131H93.977C94.0064 103.356 94.0896 103.615 94.2266 103.909C94.3734 104.193 94.53 104.398 94.6964 104.525H97.471ZM104.431 106.067H102.948L102.684 105.538C102.469 105.734 102.263 105.871 102.067 105.949C101.882 106.028 101.598 106.067 101.216 106.067H99.9388C99.5082 105.656 99.1656 105.117 98.9112 104.452C98.6665 103.786 98.5441 103.043 98.5441 102.22C98.5441 101.389 98.6665 100.684 98.9112 100.106C99.1656 99.529 99.5228 99.0152 99.9828 98.565H101.245C101.764 98.565 102.175 98.702 102.479 98.976V95.7904H104.431V106.067ZM102.479 100.106H101.069C100.707 100.723 100.526 101.482 100.526 102.382C100.526 103.273 100.702 103.987 101.055 104.525H102.479V100.106ZM109.053 95.7904H112.576V97.552H109.757L109.713 97.6401L112.062 101.927C112.542 102.788 112.781 103.444 112.781 103.894C112.781 104.882 112.454 105.607 111.798 106.067H107.908V104.364H110.946L110.99 104.276L108.348 99.5339C107.966 98.8488 107.775 98.2909 107.775 97.8603C107.775 96.8425 108.201 96.1525 109.053 95.7904ZM117.051 100.106H115.95C115.803 100.283 115.681 100.527 115.583 100.84C115.495 101.154 115.451 101.457 115.451 101.751H117.55C117.569 101.457 117.53 101.154 117.432 100.84C117.335 100.517 117.207 100.273 117.051 100.106ZM119.047 104.525V106.067H115.318C114.633 105.607 114.149 105.039 113.865 104.364C113.591 103.679 113.454 102.989 113.454 102.294C113.454 100.689 114.061 99.4458 115.274 98.565H117.653C118.308 99.0445 118.754 99.5535 118.989 100.092C119.223 100.63 119.341 101.173 119.341 101.721C119.341 102.269 119.297 102.739 119.209 103.131H115.553C115.583 103.356 115.666 103.615 115.803 103.909C115.95 104.193 116.106 104.398 116.273 104.525H119.047ZM120.341 106.067V98.565H121.735L122.102 99.3577C122.494 98.8292 122.988 98.565 123.585 98.565H124.158V100.532H122.293V106.067H120.341ZM129.198 106.067H126.482C126.013 105.685 125.641 105.181 125.367 104.555C125.093 103.928 124.956 103.233 124.956 102.47V98.565H126.908V102.411C126.908 103.273 127.07 103.977 127.393 104.525H128.288C128.611 103.948 128.773 103.248 128.773 102.426V98.565H130.725V102.397C130.725 103.17 130.588 103.879 130.314 104.525C130.04 105.171 129.668 105.685 129.198 106.067ZM131.938 106.067V98.565H133.876V106.067H131.938ZM131.938 95.7904H133.876V97.7722H131.938V95.7904ZM136.956 102.25C136.956 102.661 137.019 103.082 137.147 103.512C137.274 103.933 137.45 104.271 137.675 104.525H139.877V106.067H136.662C135.507 105.147 134.93 103.874 134.93 102.25C134.93 100.625 135.547 99.3969 136.78 98.565H139.877V100.106H137.675C137.196 100.606 136.956 101.32 136.956 102.25ZM143.96 100.106H142.859C142.712 100.283 142.59 100.527 142.492 100.84C142.404 101.154 142.36 101.457 142.36 101.751H144.459C144.479 101.457 144.44 101.154 144.342 100.84C144.244 100.517 144.117 100.273 143.96 100.106ZM145.957 104.525V106.067H142.228C141.543 105.607 141.058 105.039 140.775 104.364C140.5 103.679 140.363 102.989 140.363 102.294C140.363 100.689 140.97 99.4458 142.184 98.565H144.562C145.218 99.0445 145.663 99.5535 145.898 100.092C146.133 100.63 146.25 101.173 146.25 101.721C146.25 102.269 146.206 102.739 146.118 103.131H142.463C142.492 103.356 142.575 103.615 142.712 103.909C142.859 104.193 143.016 104.398 143.182 104.525H145.957ZM147.74 98.565H150.984V100.106H148.694L150.089 102.176C150.715 103.067 151.063 103.679 151.131 104.011C151.17 104.168 151.19 104.33 151.19 104.496C151.19 105.191 150.931 105.714 150.412 106.067H146.668V104.525H149.355L147.784 102.22C147.716 102.113 147.608 101.961 147.461 101.765C147.324 101.57 147.216 101.413 147.138 101.296C147.06 101.168 147.006 101.075 146.977 101.017C146.947 100.958 146.908 100.885 146.859 100.796C146.81 100.699 146.776 100.615 146.756 100.547C146.717 100.361 146.698 100.209 146.698 100.092C146.698 99.3773 147.045 98.8684 147.74 98.565ZM154.563 106.067V95.7904H156.574V104.364H159.628V106.067H154.563ZM161.111 97.552H158.894V95.7904H165.324V97.552H163.107V106.067H161.111V97.552ZM168.172 104.364H169.493C169.767 104.021 169.983 103.522 170.139 102.866C170.306 102.211 170.389 101.56 170.389 100.914C170.389 99.3773 170.1 98.2567 169.523 97.552H168.172V104.364ZM166.176 106.067V95.7904H170.433C171.823 97.0235 172.517 98.6971 172.517 100.811C172.517 102.915 171.867 104.667 170.565 106.067H166.176Z"/>
</mask>
<path d="M5.96029 97.508L2.48102 104.364H5.97497V106.067H0.352347V104.393L3.81694 97.552H0.352347V95.7904H5.96029V97.508ZM11.2875 106.067H8.08713C7.10843 105.157 6.61908 103.914 6.61908 102.338C6.61908 101.545 6.72674 100.855 6.94205 100.268C7.16715 99.6807 7.51948 99.1131 7.99904 98.565H11.4343C11.9432 99.1522 12.2906 99.7247 12.4766 100.283C12.6625 100.831 12.7555 101.516 12.7555 102.338C12.7555 103.914 12.2662 105.157 11.2875 106.067ZM9.12944 104.525H10.2452C10.5975 103.84 10.7737 103.062 10.7737 102.191C10.7737 101.32 10.5926 100.625 10.2305 100.106H9.12944C8.77711 100.606 8.60094 101.315 8.60094 102.235C8.60094 103.145 8.77711 103.909 9.12944 104.525ZM15.6268 102.25C15.6268 102.661 15.6904 103.082 15.8177 103.512C15.9449 103.933 16.1211 104.271 16.3462 104.525H18.5482V106.067H15.3332C14.1783 105.147 13.6009 103.874 13.6009 102.25C13.6009 100.625 14.2175 99.3969 15.4507 98.565H18.5482V100.106H16.3462C15.8666 100.606 15.6268 101.32 15.6268 102.25ZM19.5413 106.067V98.565H20.936L21.303 99.3577C21.6945 98.8292 22.1887 98.565 22.7857 98.565H23.3583V100.532H21.4939V106.067H19.5413ZM28.3908 106.067H25.1905C24.2118 105.157 23.7224 103.914 23.7224 102.338C23.7224 101.545 23.8301 100.855 24.0454 100.268C24.2705 99.6807 24.6228 99.1131 25.1024 98.565H28.5376C29.0465 99.1522 29.394 99.7247 29.5799 100.283C29.7659 100.831 29.8589 101.516 29.8589 102.338C29.8589 103.914 29.3695 105.157 28.3908 106.067ZM26.2328 104.525H27.3485C27.7008 103.84 27.877 103.062 27.877 102.191C27.877 101.32 27.6959 100.625 27.3338 100.106H26.2328C25.8804 100.606 25.7043 101.315 25.7043 102.235C25.7043 103.145 25.8804 103.909 26.2328 104.525ZM34.1688 98.565H35.2112L35.5782 99.0788C35.7837 98.8928 35.9794 98.7607 36.1654 98.6824C36.3611 98.6041 36.6498 98.565 37.0315 98.565H38.6611C39.0917 99.1131 39.3853 99.6611 39.5419 100.209C39.6985 100.757 39.7768 101.442 39.7768 102.264V106.067H37.8243V102.118C37.8243 101.217 37.6873 100.547 37.4132 100.106H36.0039C36.2192 100.527 36.3269 101.1 36.3269 101.824V106.067H34.3744V102.118C34.3744 101.188 34.2471 100.517 33.9927 100.106H32.8623V106.067H30.9098V98.565H32.4365L32.7008 99.0935C32.9161 98.8977 33.1167 98.7607 33.3027 98.6824C33.4984 98.6041 33.7871 98.565 34.1688 98.565ZM41.708 98.565H44.9523V100.106H42.6622L44.0568 102.176C44.6832 103.067 45.0306 103.679 45.0992 104.011C45.1383 104.168 45.1579 104.33 45.1579 104.496C45.1579 105.191 44.8985 105.714 44.3798 106.067H40.6363V104.525H43.3228L41.752 102.22C41.6835 102.113 41.5758 101.961 41.429 101.765C41.292 101.57 41.1844 101.413 41.1061 101.296C41.0278 101.168 40.9739 101.075 40.9446 101.017C40.9152 100.958 40.8761 100.885 40.8271 100.796C40.7782 100.699 40.7439 100.615 40.7244 100.547C40.6852 100.361 40.6656 100.209 40.6656 100.092C40.6656 99.3773 41.0131 98.8684 41.708 98.565ZM48.5309 106.067V95.7904H50.5422V106.067H48.5309ZM55.143 98.565H56.6991C57.1298 99.1131 57.4234 99.6611 57.58 100.209C57.7366 100.757 57.8149 101.442 57.8149 102.264V106.067H55.8624V102.118C55.8624 101.188 55.7351 100.517 55.4807 100.106H53.8364V106.067H51.8839V98.565H53.4107L53.675 99.0935C53.8903 98.8977 54.0909 98.7607 54.2769 98.6824C54.4726 98.6041 54.7613 98.565 55.143 98.565ZM59.2345 102.793V100.106H58.2216V98.565H59.2345V96.5244H61.187V98.565H62.3908V100.106H61.187V103.263C61.187 103.86 61.2898 104.281 61.4953 104.525H62.3908V106.067H60.3062C59.7875 105.587 59.4743 105.068 59.3666 104.511C59.2785 104.041 59.2345 103.468 59.2345 102.793ZM66.6152 100.106H65.5142C65.3674 100.283 65.2451 100.527 65.1472 100.84C65.0591 101.154 65.0151 101.457 65.0151 101.751H67.1144C67.1339 101.457 67.0948 101.154 66.9969 100.84C66.8991 100.517 66.7718 100.273 66.6152 100.106ZM68.6118 104.525V106.067H64.8829C64.1978 105.607 63.7134 105.039 63.4296 104.364C63.1555 103.679 63.0185 102.989 63.0185 102.294C63.0185 100.689 63.6253 99.4458 64.8389 98.565H67.2171C67.8729 99.0445 68.3182 99.5535 68.5531 100.092C68.7879 100.63 68.9054 101.173 68.9054 101.721C68.9054 102.269 68.8613 102.739 68.7733 103.131H65.1178C65.1472 103.356 65.2304 103.615 65.3674 103.909C65.5142 104.193 65.6708 104.398 65.8372 104.525H68.6118ZM75.5718 98.565V105.289C75.5718 106.032 75.4739 106.629 75.2782 107.08C75.0923 107.53 74.7155 107.926 74.1478 108.269H70.8007V106.742H73.311C73.5557 106.595 73.678 106.36 73.678 106.037V105.171C73.3159 105.475 72.7385 105.626 71.9457 105.626H70.8741C70.0813 104.677 69.6849 103.576 69.6849 102.323C69.6849 101.423 69.8122 100.689 70.0666 100.121C70.3211 99.5437 70.693 99.025 71.1824 98.565H72.2687C72.9049 98.565 73.4089 98.7705 73.7808 99.1816L74.045 98.565H75.5718ZM73.6193 100.106H72.1953C71.843 100.713 71.6668 101.413 71.6668 102.206C71.6668 102.989 71.8185 103.635 72.1219 104.144H73.6193V100.106ZM76.7866 106.067V98.565H78.1813L78.5483 99.3577C78.9398 98.8292 79.434 98.565 80.031 98.565H80.6036V100.532H78.7391V106.067H76.7866ZM84.6969 102.676H83.1261C82.9206 102.93 82.8178 103.248 82.8178 103.63C82.8178 104.011 82.9254 104.31 83.1408 104.525H84.6969V102.676ZM81.5406 98.565H85.1813C85.7686 98.9173 86.1552 99.3235 86.3411 99.7835C86.5271 100.234 86.62 100.85 86.62 101.633V103.835C86.62 104.648 86.6396 105.391 86.6788 106.067H85.0052L84.7409 105.538C84.3592 105.891 83.821 106.067 83.1261 106.067H82.2012C81.3693 105.519 80.9534 104.731 80.9534 103.703C80.9534 102.666 81.3791 101.849 82.2306 101.252H83.6105C83.9922 101.252 84.3495 101.369 84.6822 101.604V100.87C84.6822 100.488 84.5158 100.234 84.1831 100.106H81.5406V98.565ZM88.0937 102.793V100.106H87.0807V98.565H88.0937V96.5244H90.0462V98.565H91.25V100.106H90.0462V103.263C90.0462 103.86 90.149 104.281 90.3545 104.525H91.25V106.067H89.1654C88.6467 105.587 88.3335 105.068 88.2258 104.511C88.1377 104.041 88.0937 103.468 88.0937 102.793ZM95.4744 100.106H94.3734C94.2266 100.283 94.1042 100.527 94.0064 100.84C93.9183 101.154 93.8743 101.457 93.8743 101.751H95.9736C95.9931 101.457 95.954 101.154 95.8561 100.84C95.7582 100.517 95.631 100.273 95.4744 100.106ZM97.471 104.525V106.067H93.7421C93.057 105.607 92.5726 105.039 92.2888 104.364C92.0147 103.679 91.8777 102.989 91.8777 102.294C91.8777 100.689 92.4845 99.4458 93.6981 98.565H96.0763C96.7321 99.0445 97.1774 99.5535 97.4122 100.092C97.6471 100.63 97.7646 101.173 97.7646 101.721C97.7646 102.269 97.7205 102.739 97.6325 103.131H93.977C94.0064 103.356 94.0896 103.615 94.2266 103.909C94.3734 104.193 94.53 104.398 94.6964 104.525H97.471ZM104.431 106.067H102.948L102.684 105.538C102.469 105.734 102.263 105.871 102.067 105.949C101.882 106.028 101.598 106.067 101.216 106.067H99.9388C99.5082 105.656 99.1656 105.117 98.9112 104.452C98.6665 103.786 98.5441 103.043 98.5441 102.22C98.5441 101.389 98.6665 100.684 98.9112 100.106C99.1656 99.529 99.5228 99.0152 99.9828 98.565H101.245C101.764 98.565 102.175 98.702 102.479 98.976V95.7904H104.431V106.067ZM102.479 100.106H101.069C100.707 100.723 100.526 101.482 100.526 102.382C100.526 103.273 100.702 103.987 101.055 104.525H102.479V100.106ZM109.053 95.7904H112.576V97.552H109.757L109.713 97.6401L112.062 101.927C112.542 102.788 112.781 103.444 112.781 103.894C112.781 104.882 112.454 105.607 111.798 106.067H107.908V104.364H110.946L110.99 104.276L108.348 99.5339C107.966 98.8488 107.775 98.2909 107.775 97.8603C107.775 96.8425 108.201 96.1525 109.053 95.7904ZM117.051 100.106H115.95C115.803 100.283 115.681 100.527 115.583 100.84C115.495 101.154 115.451 101.457 115.451 101.751H117.55C117.569 101.457 117.53 101.154 117.432 100.84C117.335 100.517 117.207 100.273 117.051 100.106ZM119.047 104.525V106.067H115.318C114.633 105.607 114.149 105.039 113.865 104.364C113.591 103.679 113.454 102.989 113.454 102.294C113.454 100.689 114.061 99.4458 115.274 98.565H117.653C118.308 99.0445 118.754 99.5535 118.989 100.092C119.223 100.63 119.341 101.173 119.341 101.721C119.341 102.269 119.297 102.739 119.209 103.131H115.553C115.583 103.356 115.666 103.615 115.803 103.909C115.95 104.193 116.106 104.398 116.273 104.525H119.047ZM120.341 106.067V98.565H121.735L122.102 99.3577C122.494 98.8292 122.988 98.565 123.585 98.565H124.158V100.532H122.293V106.067H120.341ZM129.198 106.067H126.482C126.013 105.685 125.641 105.181 125.367 104.555C125.093 103.928 124.956 103.233 124.956 102.47V98.565H126.908V102.411C126.908 103.273 127.07 103.977 127.393 104.525H128.288C128.611 103.948 128.773 103.248 128.773 102.426V98.565H130.725V102.397C130.725 103.17 130.588 103.879 130.314 104.525C130.04 105.171 129.668 105.685 129.198 106.067ZM131.938 106.067V98.565H133.876V106.067H131.938ZM131.938 95.7904H133.876V97.7722H131.938V95.7904ZM136.956 102.25C136.956 102.661 137.019 103.082 137.147 103.512C137.274 103.933 137.45 104.271 137.675 104.525H139.877V106.067H136.662C135.507 105.147 134.93 103.874 134.93 102.25C134.93 100.625 135.547 99.3969 136.78 98.565H139.877V100.106H137.675C137.196 100.606 136.956 101.32 136.956 102.25ZM143.96 100.106H142.859C142.712 100.283 142.59 100.527 142.492 100.84C142.404 101.154 142.36 101.457 142.36 101.751H144.459C144.479 101.457 144.44 101.154 144.342 100.84C144.244 100.517 144.117 100.273 143.96 100.106ZM145.957 104.525V106.067H142.228C141.543 105.607 141.058 105.039 140.775 104.364C140.5 103.679 140.363 102.989 140.363 102.294C140.363 100.689 140.97 99.4458 142.184 98.565H144.562C145.218 99.0445 145.663 99.5535 145.898 100.092C146.133 100.63 146.25 101.173 146.25 101.721C146.25 102.269 146.206 102.739 146.118 103.131H142.463C142.492 103.356 142.575 103.615 142.712 103.909C142.859 104.193 143.016 104.398 143.182 104.525H145.957ZM147.74 98.565H150.984V100.106H148.694L150.089 102.176C150.715 103.067 151.063 103.679 151.131 104.011C151.17 104.168 151.19 104.33 151.19 104.496C151.19 105.191 150.931 105.714 150.412 106.067H146.668V104.525H149.355L147.784 102.22C147.716 102.113 147.608 101.961 147.461 101.765C147.324 101.57 147.216 101.413 147.138 101.296C147.06 101.168 147.006 101.075 146.977 101.017C146.947 100.958 146.908 100.885 146.859 100.796C146.81 100.699 146.776 100.615 146.756 100.547C146.717 100.361 146.698 100.209 146.698 100.092C146.698 99.3773 147.045 98.8684 147.74 98.565ZM154.563 106.067V95.7904H156.574V104.364H159.628V106.067H154.563ZM161.111 97.552H158.894V95.7904H165.324V97.552H163.107V106.067H161.111V97.552ZM168.172 104.364H169.493C169.767 104.021 169.983 103.522 170.139 102.866C170.306 102.211 170.389 101.56 170.389 100.914C170.389 99.3773 170.1 98.2567 169.523 97.552H168.172V104.364ZM166.176 106.067V95.7904H170.433C171.823 97.0235 172.517 98.6971 172.517 100.811C172.517 102.915 171.867 104.667 170.565 106.067H166.176Z" fill="#3A54DC"/>
<path d="M5.96029 97.508L6.31411 97.6875L6.35706 97.6029V97.508H5.96029ZM2.48102 104.364L2.1272 104.184L1.83472 104.761H2.48102V104.364ZM5.97497 104.364H6.37174V103.967H5.97497V104.364ZM5.97497 106.067V106.463H6.37174V106.067H5.97497ZM0.352347 106.067H-0.0444229V106.463H0.352347V106.067ZM0.352347 104.393L-0.00161866 104.214L-0.0444229 104.298V104.393H0.352347ZM3.81694 97.552L4.17091 97.7313L4.46263 97.1553H3.81694V97.552ZM0.352347 97.552H-0.0444229V97.9488H0.352347V97.552ZM0.352347 95.7904V95.3936H-0.0444229V95.7904H0.352347ZM5.96029 95.7904H6.35706V95.3936H5.96029V95.7904ZM5.60648 97.3284L2.1272 104.184L2.83483 104.543L6.31411 97.6875L5.60648 97.3284ZM2.48102 104.761H5.97497V103.967H2.48102V104.761ZM5.5782 104.364V106.067H6.37174V104.364H5.5782ZM5.97497 105.67H0.352347V106.463H5.97497V105.67ZM0.749117 106.067V104.393H-0.0444229V106.067H0.749117ZM0.706312 104.572L4.17091 97.7313L3.46298 97.3728L-0.00161866 104.214L0.706312 104.572ZM3.81694 97.1553H0.352347V97.9488H3.81694V97.1553ZM0.749117 97.552V95.7904H-0.0444229V97.552H0.749117ZM0.352347 96.1871H5.96029V95.3936H0.352347V96.1871ZM5.56352 95.7904V97.508H6.35706V95.7904H5.56352ZM11.2875 106.067V106.463H11.4435L11.5577 106.357L11.2875 106.067ZM8.08713 106.067L7.81692 106.357L7.93114 106.463H8.08713V106.067ZM6.94205 100.268L6.57153 100.126L6.56953 100.131L6.94205 100.268ZM7.99904 98.565V98.1682H7.819L7.70044 98.3037L7.99904 98.565ZM11.4343 98.565L11.7341 98.3051L11.6155 98.1682H11.4343V98.565ZM12.4766 100.283L12.1002 100.408L12.1009 100.41L12.4766 100.283ZM9.12944 104.525L8.78495 104.722L8.89919 104.922H9.12944V104.525ZM10.2452 104.525V104.922H10.4873L10.598 104.707L10.2452 104.525ZM10.2305 100.106L10.5558 99.8793L10.4374 99.7097H10.2305V100.106ZM9.12944 100.106V99.7097H8.92385L8.80529 99.8776L9.12944 100.106ZM11.2875 105.67H8.08713V106.463H11.2875V105.67ZM8.35733 105.776C7.47383 104.955 7.01585 103.825 7.01585 102.338H6.22231C6.22231 104.002 6.74302 105.359 7.81692 106.357L8.35733 105.776ZM7.01585 102.338C7.01585 101.58 7.11894 100.938 7.31457 100.405L6.56953 100.131C6.33453 100.772 6.22231 101.51 6.22231 102.338H7.01585ZM7.31253 100.41C7.51847 99.8727 7.8441 99.3446 8.29764 98.8263L7.70044 98.3037C7.19487 98.8815 6.81583 99.4887 6.57157 100.126L7.31253 100.41ZM7.99904 98.9618H11.4343V98.1682H7.99904V98.9618ZM11.1344 98.8248C11.6197 99.3847 11.9351 99.9127 12.1002 100.408L12.853 100.157C12.6462 99.5368 12.2667 98.9197 11.7341 98.3051L11.1344 98.8248ZM12.1009 100.41C12.2684 100.904 12.3588 101.542 12.3588 102.338H13.1523C13.1523 101.489 13.0567 100.758 12.8523 100.155L12.1009 100.41ZM12.3588 102.338C12.3588 103.825 11.9008 104.955 11.0173 105.776L11.5577 106.357C12.6316 105.359 13.1523 104.002 13.1523 102.338H12.3588ZM9.12944 104.922H10.2452V104.128H9.12944V104.922ZM10.598 104.707C10.9828 103.959 11.1704 103.117 11.1704 102.191H10.3769C10.3769 103.007 10.2122 103.722 9.89232 104.344L10.598 104.707ZM11.1704 102.191C11.1704 101.269 10.979 100.485 10.5558 99.8793L9.90514 100.334C10.2062 100.765 10.3769 101.371 10.3769 102.191H11.1704ZM10.2305 99.7097H9.12944V100.503H10.2305V99.7097ZM8.80529 99.8776C8.38731 100.47 8.20417 101.272 8.20417 102.235H8.99771C8.99771 101.358 9.16691 100.741 9.45359 100.335L8.80529 99.8776ZM8.20417 102.235C8.20417 103.195 8.39001 104.031 8.78495 104.722L9.47393 104.328C9.16421 103.786 8.99771 103.095 8.99771 102.235H8.20417ZM15.8177 103.512L15.4371 103.625L15.4379 103.627L15.8177 103.512ZM16.3462 104.525L16.049 104.788L16.1674 104.922H16.3462V104.525ZM18.5482 104.525H18.945V104.128H18.5482V104.525ZM18.5482 106.067V106.463H18.945V106.067H18.5482ZM15.3332 106.067L15.086 106.377L15.1945 106.463H15.3332V106.067ZM15.4507 98.565V98.1682H15.3293L15.2288 98.2361L15.4507 98.565ZM18.5482 98.565H18.945V98.1682H18.5482V98.565ZM18.5482 100.106V100.503H18.945V100.106H18.5482ZM16.3462 100.106V99.7097H16.1771L16.06 99.8315L16.3462 100.106ZM15.23 102.25C15.23 102.702 15.3001 103.161 15.4372 103.625L16.1982 103.4C16.0807 103.002 16.0236 102.619 16.0236 102.25H15.23ZM15.4379 103.627C15.577 104.087 15.7766 104.48 16.049 104.788L16.6433 104.262C16.4655 104.061 16.3128 103.779 16.1975 103.397L15.4379 103.627ZM16.3462 104.922H18.5482V104.128H16.3462V104.922ZM18.1515 104.525V106.067H18.945V104.525H18.1515ZM18.5482 105.67H15.3332V106.463H18.5482V105.67ZM15.5804 105.756C14.5304 104.92 13.9977 103.767 13.9977 102.25H13.2041C13.2041 103.981 13.8263 105.374 15.086 106.377L15.5804 105.756ZM13.9977 102.25C13.9977 100.743 14.5601 99.6444 15.6725 98.8939L15.2288 98.2361C13.8749 99.1494 13.2041 100.508 13.2041 102.25H13.9977ZM15.4507 98.9618H18.5482V98.1682H15.4507V98.9618ZM18.1515 98.565V100.106H18.945V98.565H18.1515ZM18.5482 99.7097H16.3462V100.503H18.5482V99.7097ZM16.06 99.8315C15.4879 100.427 15.23 101.254 15.23 102.25H16.0236C16.0236 101.386 16.2453 100.784 16.6323 100.381L16.06 99.8315ZM19.5413 106.067H19.1446V106.463H19.5413V106.067ZM19.5413 98.565V98.1682H19.1446V98.565H19.5413ZM20.936 98.565L21.296 98.3983L21.1895 98.1682H20.936V98.565ZM21.303 99.3577L20.9429 99.5244L21.2239 100.131L21.6218 99.5939L21.303 99.3577ZM23.3583 98.565H23.755V98.1682H23.3583V98.565ZM23.3583 100.532V100.929H23.755V100.532H23.3583ZM21.4939 100.532V100.135H21.0971V100.532H21.4939ZM21.4939 106.067V106.463H21.8906V106.067H21.4939ZM19.9381 106.067V98.565H19.1446V106.067H19.9381ZM19.5413 98.9618H20.936V98.1682H19.5413V98.9618ZM20.5759 98.7317L20.9429 99.5244L21.6631 99.191L21.296 98.3983L20.5759 98.7317ZM21.6218 99.5939C21.9473 99.1545 22.3285 98.9618 22.7857 98.9618V98.1682C22.0489 98.1682 21.4417 98.5039 20.9842 99.1216L21.6218 99.5939ZM22.7857 98.9618H23.3583V98.1682H22.7857V98.9618ZM22.9615 98.565V100.532H23.755V98.565H22.9615ZM23.3583 100.135H21.4939V100.929H23.3583V100.135ZM21.0971 100.532V106.067H21.8906V100.532H21.0971ZM21.4939 105.67H19.5413V106.463H21.4939V105.67ZM28.3908 106.067V106.463H28.5468L28.661 106.357L28.3908 106.067ZM25.1905 106.067L24.9203 106.357L25.0345 106.463H25.1905V106.067ZM24.0454 100.268L23.6749 100.126L23.6729 100.131L24.0454 100.268ZM25.1024 98.565V98.1682H24.9223L24.8038 98.3037L25.1024 98.565ZM28.5376 98.565L28.8375 98.3051L28.7188 98.1682H28.5376V98.565ZM29.5799 100.283L29.2035 100.408L29.2042 100.41L29.5799 100.283ZM26.2328 104.525L25.8883 104.722L26.0025 104.922H26.2328V104.525ZM27.3485 104.525V104.922H27.5906L27.7013 104.707L27.3485 104.525ZM27.3338 100.106L27.6591 99.8793L27.5407 99.7097H27.3338V100.106ZM26.2328 100.106V99.7097H26.0272L25.9086 99.8776L26.2328 100.106ZM28.3908 105.67H25.1905V106.463H28.3908V105.67ZM25.4607 105.776C24.5772 104.955 24.1192 103.825 24.1192 102.338H23.3256C23.3256 104.002 23.8464 105.359 24.9203 106.357L25.4607 105.776ZM24.1192 102.338C24.1192 101.58 24.2223 100.938 24.4179 100.405L23.6729 100.131C23.4379 100.772 23.3256 101.51 23.3256 102.338H24.1192ZM24.4159 100.41C24.6218 99.8727 24.9474 99.3446 25.401 98.8263L24.8038 98.3037C24.2982 98.8815 23.9192 99.4887 23.6749 100.126L24.4159 100.41ZM25.1024 98.9618H28.5376V98.1682H25.1024V98.9618ZM28.2378 98.8248C28.723 99.3847 29.0384 99.9127 29.2035 100.408L29.9563 100.157C29.7496 99.5368 29.3701 98.9197 28.8375 98.3051L28.2378 98.8248ZM29.2042 100.41C29.3717 100.904 29.4621 101.542 29.4621 102.338H30.2556C30.2556 101.489 30.1601 100.758 29.9557 100.155L29.2042 100.41ZM29.4621 102.338C29.4621 103.825 29.0041 104.955 28.1206 105.776L28.661 106.357C29.7349 105.359 30.2556 104.002 30.2556 102.338H29.4621ZM26.2328 104.922H27.3485V104.128H26.2328V104.922ZM27.7013 104.707C28.0861 103.959 28.2738 103.117 28.2738 102.191H27.4802C27.4802 103.007 27.3155 103.722 26.9957 104.344L27.7013 104.707ZM28.2738 102.191C28.2738 101.269 28.0823 100.485 27.6591 99.8793L27.0085 100.334C27.3095 100.765 27.4802 101.371 27.4802 102.191H28.2738ZM27.3338 99.7097H26.2328V100.503H27.3338V99.7097ZM25.9086 99.8776C25.4906 100.47 25.3075 101.272 25.3075 102.235H26.1011C26.1011 101.358 26.2702 100.741 26.5569 100.335L25.9086 99.8776ZM25.3075 102.235C25.3075 103.195 25.4933 104.031 25.8883 104.722L26.5773 104.328C26.2675 103.786 26.1011 103.095 26.1011 102.235H25.3075ZM35.2112 98.565L35.534 98.3344L35.4153 98.1682H35.2112V98.565ZM35.5782 99.0788L35.2553 99.3094L35.5141 99.6718L35.8444 99.373L35.5782 99.0788ZM36.1654 98.6824L36.018 98.314L36.0114 98.3168L36.1654 98.6824ZM38.6611 98.565L38.9731 98.3199L38.8539 98.1682H38.6611V98.565ZM39.5419 100.209L39.9234 100.1L39.5419 100.209ZM39.7768 106.067V106.463H40.1736V106.067H39.7768ZM37.8243 106.067H37.4275V106.463H37.8243V106.067ZM37.4132 100.106L37.7501 99.8968L37.6337 99.7097H37.4132V100.106ZM36.0039 100.106V99.7097H35.3552L35.6507 100.287L36.0039 100.106ZM36.3269 106.067V106.463H36.7236V106.067H36.3269ZM34.3744 106.067H33.9776V106.463H34.3744V106.067ZM33.9927 100.106L34.33 99.8976L34.2137 99.7097H33.9927V100.106ZM32.8623 100.106V99.7097H32.4655V100.106H32.8623ZM32.8623 106.067V106.463H33.259V106.067H32.8623ZM30.9098 106.067H30.513V106.463H30.9098V106.067ZM30.9098 98.565V98.1682H30.513V98.565H30.9098ZM32.4365 98.565L32.7914 98.3875L32.6818 98.1682H32.4365V98.565ZM32.7008 99.0935L32.3459 99.2709L32.5801 99.7394L32.9677 99.3871L32.7008 99.0935ZM33.3027 98.6824L33.1553 98.314L33.1487 98.3168L33.3027 98.6824ZM34.1688 98.9618H35.2112V98.1682H34.1688V98.9618ZM34.8883 98.7956L35.2553 99.3094L35.901 98.8482L35.534 98.3344L34.8883 98.7956ZM35.8444 99.373C36.0283 99.2066 36.1868 99.1039 36.3194 99.0481L36.0114 98.3168C35.7721 98.4175 35.5391 98.5791 35.312 98.7846L35.8444 99.373ZM36.3127 99.0508C36.4379 99.0008 36.6661 98.9618 37.0315 98.9618V98.1682C36.6335 98.1682 36.2844 98.2075 36.018 98.314L36.3127 99.0508ZM37.0315 98.9618H38.6611V98.1682H37.0315V98.9618ZM38.3491 98.8101C38.7548 99.3265 39.0207 99.8293 39.1604 100.318L39.9234 100.1C39.7499 99.493 39.4286 98.8996 38.9731 98.3199L38.3491 98.8101ZM39.1604 100.318C39.3035 100.819 39.38 101.464 39.38 102.264H40.1736C40.1736 101.42 40.0935 100.696 39.9234 100.1L39.1604 100.318ZM39.38 102.264V106.067H40.1736V102.264H39.38ZM39.7768 105.67H37.8243V106.463H39.7768V105.67ZM38.2211 106.067V102.118H37.4275V106.067H38.2211ZM38.2211 102.118C38.2211 101.191 38.0826 100.431 37.7501 99.8968L37.0763 100.316C37.292 100.663 37.4275 101.244 37.4275 102.118H38.2211ZM37.4132 99.7097H36.0039V100.503H37.4132V99.7097ZM35.6507 100.287C35.8262 100.63 35.9301 101.132 35.9301 101.824H36.7236C36.7236 101.067 36.6123 100.424 36.3571 99.9257L35.6507 100.287ZM35.9301 101.824V106.067H36.7236V101.824H35.9301ZM36.3269 105.67H34.3744V106.463H36.3269V105.67ZM34.7711 106.067V102.118H33.9776V106.067H34.7711ZM34.7711 102.118C34.7711 101.171 34.6452 100.407 34.33 99.8976L33.6553 100.315C33.8491 100.628 33.9776 101.205 33.9776 102.118H34.7711ZM33.9927 99.7097H32.8623V100.503H33.9927V99.7097ZM32.4655 100.106V106.067H33.259V100.106H32.4655ZM32.8623 105.67H30.9098V106.463H32.8623V105.67ZM31.3065 106.067V98.565H30.513V106.067H31.3065ZM30.9098 98.9618H32.4365V98.1682H30.9098V98.9618ZM32.0817 98.7424L32.3459 99.2709L33.0557 98.916L32.7914 98.3875L32.0817 98.7424ZM32.9677 99.3871C33.1631 99.2094 33.3261 99.1031 33.4567 99.0481L33.1487 98.3168C32.9074 98.4184 32.6691 98.5861 32.4339 98.7999L32.9677 99.3871ZM33.4501 99.0508C33.5752 99.0008 33.8034 98.9618 34.1688 98.9618V98.1682C33.7709 98.1682 33.4217 98.2075 33.1553 98.314L33.4501 99.0508ZM41.708 98.565V98.1682H41.6251L41.5492 98.2014L41.708 98.565ZM44.9523 98.565H45.3491V98.1682H44.9523V98.565ZM44.9523 100.106V100.503H45.3491V100.106H44.9523ZM42.6622 100.106V99.7097H41.9164L42.3331 100.328L42.6622 100.106ZM44.0568 102.176L43.7277 102.398L43.7323 102.405L44.0568 102.176ZM45.0992 104.011L44.7105 104.091L44.7122 104.1L44.7142 104.108L45.0992 104.011ZM44.3798 106.067V106.463H44.5018L44.6027 106.395L44.3798 106.067ZM40.6363 106.067H40.2395V106.463H40.6363V106.067ZM40.6363 104.525V104.128H40.2395V104.525H40.6363ZM43.3228 104.525V104.922H44.0734L43.6507 104.302L43.3228 104.525ZM41.752 102.22L41.4171 102.434L41.4241 102.444L41.752 102.22ZM41.429 101.765L41.1038 101.993L41.1116 102.003L41.429 101.765ZM41.1061 101.296L40.7681 101.503L40.7719 101.51L40.7759 101.516L41.1061 101.296ZM40.9446 101.017L40.5897 101.194V101.194L40.9446 101.017ZM40.8271 100.796L40.4722 100.974L40.4761 100.982L40.4803 100.989L40.8271 100.796ZM40.7244 100.547L40.3361 100.629L40.339 100.642L40.3429 100.656L40.7244 100.547ZM41.708 98.9618H44.9523V98.1682H41.708V98.9618ZM44.5556 98.565V100.106H45.3491V98.565H44.5556ZM44.9523 99.7097H42.6622V100.503H44.9523V99.7097ZM42.3331 100.328L43.7278 102.398L44.3859 101.955L42.9912 99.8847L42.3331 100.328ZM43.7323 102.405C44.0416 102.844 44.2772 103.209 44.4422 103.499C44.6125 103.799 44.6896 103.99 44.7105 104.091L45.4878 103.931C45.4402 103.701 45.3093 103.419 45.1322 103.107C44.9498 102.786 44.6984 102.399 44.3814 101.948L43.7323 102.405ZM44.7142 104.108C44.7453 104.232 44.7611 104.361 44.7611 104.496H45.5546C45.5546 104.298 45.5313 104.104 45.4841 103.915L44.7142 104.108ZM44.7611 104.496C44.7611 105.076 44.5537 105.469 44.1569 105.738L44.6027 106.395C45.2433 105.96 45.5546 105.306 45.5546 104.496H44.7611ZM44.3798 105.67H40.6363V106.463H44.3798V105.67ZM41.0331 106.067V104.525H40.2395V106.067H41.0331ZM40.6363 104.922H43.3228V104.128H40.6363V104.922ZM43.6507 104.302L42.0799 101.997L41.4241 102.444L42.9949 104.749L43.6507 104.302ZM42.0867 102.007C42.0099 101.887 41.8949 101.725 41.7464 101.527L41.1116 102.003C41.2568 102.197 41.3571 102.339 41.4173 102.433L42.0867 102.007ZM41.7541 101.538C41.6178 101.343 41.5121 101.189 41.4362 101.075L40.7759 101.516C40.8566 101.637 40.9662 101.796 41.104 101.993L41.7541 101.538ZM41.444 101.088C41.3661 100.961 41.3203 100.881 41.2995 100.839L40.5897 101.194C40.6275 101.27 40.6894 101.376 40.7681 101.503L41.444 101.088ZM41.2995 100.839C41.2666 100.773 41.2244 100.694 41.174 100.604L40.4803 100.989C40.5277 101.075 40.5639 101.142 40.5897 101.194L41.2995 100.839ZM41.182 100.619C41.1389 100.533 41.1161 100.474 41.1059 100.438L40.3429 100.656C40.3717 100.757 40.4175 100.864 40.4722 100.974L41.182 100.619ZM41.1126 100.465C41.0761 100.292 41.0624 100.17 41.0624 100.092H40.2689C40.2689 100.248 40.2943 100.43 40.3361 100.629L41.1126 100.465ZM41.0624 100.092C41.0624 99.8013 41.132 99.5764 41.2539 99.3979C41.3768 99.2179 41.5719 99.0573 41.8667 98.9286L41.5492 98.2014C41.1492 98.376 40.823 98.6217 40.5985 98.9505C40.373 99.2809 40.2689 99.6678 40.2689 100.092H41.0624ZM48.5309 106.067H48.1342V106.463H48.5309V106.067ZM48.5309 95.7904V95.3936H48.1342V95.7904H48.5309ZM50.5422 95.7904H50.9389V95.3936H50.5422V95.7904ZM50.5422 106.067V106.463H50.9389V106.067H50.5422ZM48.9277 106.067V95.7904H48.1342V106.067H48.9277ZM48.5309 96.1871H50.5422V95.3936H48.5309V96.1871ZM50.1454 95.7904V106.067H50.9389V95.7904H50.1454ZM50.5422 105.67H48.5309V106.463H50.5422V105.67ZM56.6991 98.565L57.0111 98.3199L56.892 98.1682H56.6991V98.565ZM57.8149 106.067V106.463H58.2116V106.067H57.8149ZM55.8624 106.067H55.4656V106.463H55.8624V106.067ZM55.4807 100.106L55.818 99.8976L55.7017 99.7097H55.4807V100.106ZM53.8364 100.106V99.7097H53.4397V100.106H53.8364ZM53.8364 106.067V106.463H54.2332V106.067H53.8364ZM51.8839 106.067H51.4872V106.463H51.8839V106.067ZM51.8839 98.565V98.1682H51.4872V98.565H51.8839ZM53.4107 98.565L53.7656 98.3875L53.6559 98.1682H53.4107V98.565ZM53.675 99.0935L53.3201 99.2709L53.5543 99.7394L53.9419 99.3871L53.675 99.0935ZM54.2769 98.6824L54.1295 98.314L54.1229 98.3168L54.2769 98.6824ZM55.143 98.9618H56.6991V98.1682H55.143V98.9618ZM56.3872 98.8101C56.7929 99.3265 57.0588 99.8293 57.1985 100.318L57.9615 100.1C57.788 99.493 57.4667 98.8996 57.0111 98.3199L56.3872 98.8101ZM57.1985 100.318C57.3415 100.819 57.4181 101.464 57.4181 102.264H58.2116C58.2116 101.42 58.1316 100.696 57.9615 100.1L57.1985 100.318ZM57.4181 102.264V106.067H58.2116V102.264H57.4181ZM57.8149 105.67H55.8624V106.463H57.8149V105.67ZM56.2591 106.067V102.118H55.4656V106.067H56.2591ZM56.2591 102.118C56.2591 101.171 56.1331 100.407 55.818 99.8976L55.1433 100.315C55.3371 100.628 55.4656 101.205 55.4656 102.118H56.2591ZM55.4807 99.7097H53.8364V100.503H55.4807V99.7097ZM53.4397 100.106V106.067H54.2332V100.106H53.4397ZM53.8364 105.67H51.8839V106.463H53.8364V105.67ZM52.2807 106.067V98.565H51.4872V106.067H52.2807ZM51.8839 98.9618H53.4107V98.1682H51.8839V98.9618ZM53.0558 98.7424L53.3201 99.2709L54.0298 98.916L53.7656 98.3875L53.0558 98.7424ZM53.9419 99.3871C54.1373 99.2094 54.3003 99.1031 54.4308 99.0481L54.1229 98.3168C53.8815 98.4184 53.6432 98.5861 53.4081 98.7999L53.9419 99.3871ZM54.4242 99.0508C54.5494 99.0008 54.7776 98.9618 55.143 98.9618V98.1682C54.745 98.1682 54.3959 98.2075 54.1295 98.314L54.4242 99.0508ZM59.2345 100.106H59.6313V99.7097H59.2345V100.106ZM58.2216 100.106H57.8248V100.503H58.2216V100.106ZM58.2216 98.565V98.1682H57.8248V98.565H58.2216ZM59.2345 98.565V98.9618H59.6313V98.565H59.2345ZM59.2345 96.5244V96.1276H58.8377V96.5244H59.2345ZM61.187 96.5244H61.5838V96.1276H61.187V96.5244ZM61.187 98.565H60.7902V98.9618H61.187V98.565ZM62.3908 98.565H62.7876V98.1682H62.3908V98.565ZM62.3908 100.106V100.503H62.7876V100.106H62.3908ZM61.187 100.106V99.7097H60.7902V100.106H61.187ZM61.4953 104.525L61.1915 104.78L61.3104 104.922H61.4953V104.525ZM62.3908 104.525H62.7876V104.128H62.3908V104.525ZM62.3908 106.067V106.463H62.7876V106.067H62.3908ZM60.3062 106.067L60.0368 106.358L60.1509 106.463H60.3062V106.067ZM59.3666 104.511L58.9767 104.584L58.977 104.586L59.3666 104.511ZM59.6313 102.793V100.106H58.8377V102.793H59.6313ZM59.2345 99.7097H58.2216V100.503H59.2345V99.7097ZM58.6183 100.106V98.565H57.8248V100.106H58.6183ZM58.2216 98.9618H59.2345V98.1682H58.2216V98.9618ZM59.6313 98.565V96.5244H58.8377V98.565H59.6313ZM59.2345 96.9212H61.187V96.1276H59.2345V96.9212ZM60.7902 96.5244V98.565H61.5838V96.5244H60.7902ZM61.187 98.9618H62.3908V98.1682H61.187V98.9618ZM61.994 98.565V100.106H62.7876V98.565H61.994ZM62.3908 99.7097H61.187V100.503H62.3908V99.7097ZM60.7902 100.106V103.263H61.5838V100.106H60.7902ZM60.7902 103.263C60.7902 103.882 60.8922 104.424 61.1915 104.78L61.7991 104.27C61.6873 104.137 61.5838 103.837 61.5838 103.263H60.7902ZM61.4953 104.922H62.3908V104.128H61.4953V104.922ZM61.994 104.525V106.067H62.7876V104.525H61.994ZM62.3908 105.67H60.3062V106.463H62.3908V105.67ZM60.5755 105.775C60.1036 105.339 59.8443 104.892 59.7562 104.435L58.977 104.586C59.1043 105.245 59.4714 105.835 60.0368 106.358L60.5755 105.775ZM59.7566 104.437C59.6745 103.999 59.6313 103.453 59.6313 102.793H58.8377C58.8377 103.484 58.8826 104.082 58.9767 104.584L59.7566 104.437ZM66.6152 100.106L66.9042 99.8345L66.7867 99.7097H66.6152V100.106ZM65.5142 100.106V99.7097H65.3284L65.2094 99.8524L65.5142 100.106ZM65.1472 100.84L64.7683 100.722L64.7652 100.733L65.1472 100.84ZM65.0151 101.751H64.6183V102.147H65.0151V101.751ZM67.1144 101.751V102.147H67.4856L67.5103 101.777L67.1144 101.751ZM66.9969 100.84L66.6172 100.956L66.6182 100.959L66.9969 100.84ZM68.6118 104.525H69.0086V104.128H68.6118V104.525ZM68.6118 106.067V106.463H69.0086V106.067H68.6118ZM64.8829 106.067L64.6618 106.396L64.7621 106.463H64.8829V106.067ZM63.4296 104.364L63.0611 104.511L63.0638 104.518L63.4296 104.364ZM64.8389 98.565V98.1682H64.7101L64.6058 98.2439L64.8389 98.565ZM67.2171 98.565L67.4514 98.2447L67.3467 98.1682H67.2171V98.565ZM68.5531 100.092L68.1894 100.25L68.5531 100.092ZM68.7733 103.131V103.527H69.0907L69.1604 103.218L68.7733 103.131ZM65.1178 103.131V102.734H64.6659L64.7244 103.182L65.1178 103.131ZM65.3674 103.909L65.0078 104.076L65.0113 104.084L65.015 104.091L65.3674 103.909ZM65.8372 104.525L65.5962 104.84L65.7029 104.922H65.8372V104.525ZM66.6152 99.7097H65.5142V100.503H66.6152V99.7097ZM65.2094 99.8524C65.0182 100.082 64.8757 100.379 64.7685 100.722L65.5259 100.959C65.6144 100.676 65.7165 100.483 65.819 100.36L65.2094 99.8524ZM64.7652 100.733C64.6684 101.077 64.6183 101.417 64.6183 101.751H65.4118C65.4118 101.497 65.4498 101.23 65.5291 100.948L64.7652 100.733ZM65.0151 102.147H67.1144V101.354H65.0151V102.147ZM67.5103 101.777C67.5334 101.429 67.4864 101.077 67.3756 100.722L66.6182 100.959C66.7031 101.231 66.7344 101.485 66.7185 101.724L67.5103 101.777ZM67.3766 100.725C67.2688 100.37 67.1179 100.062 66.9042 99.8345L66.3263 100.378C66.4257 100.484 66.5293 100.665 66.6172 100.956L67.3766 100.725ZM68.215 104.525V106.067H69.0086V104.525H68.215ZM68.6118 105.67H64.8829V106.463H68.6118V105.67ZM65.1041 105.737C64.4749 105.315 64.0455 104.805 63.7953 104.21L63.0638 104.518C63.3813 105.273 63.9208 105.899 64.6618 106.396L65.1041 105.737ZM63.798 104.216C63.5415 103.575 63.4153 102.935 63.4153 102.294H62.6217C62.6217 103.042 62.7696 103.782 63.0612 104.511L63.798 104.216ZM63.4153 102.294C63.4153 100.805 63.9694 99.6863 65.072 98.8861L64.6058 98.2439C63.2812 99.2053 62.6217 100.572 62.6217 102.294H63.4153ZM64.8389 98.9618H67.2171V98.1682H64.8389V98.9618ZM66.9829 98.8852C67.6027 99.3385 67.9913 99.7966 68.1894 100.25L68.9167 99.9331C68.645 99.3104 68.143 98.7506 67.4514 98.2447L66.9829 98.8852ZM68.1894 100.25C68.404 100.742 68.5086 101.232 68.5086 101.721H69.3022C69.3022 101.115 69.1719 100.518 68.9167 99.9331L68.1894 100.25ZM68.5086 101.721C68.5086 102.25 68.466 102.689 68.3862 103.044L69.1604 103.218C69.2567 102.789 69.3022 102.289 69.3022 101.721H68.5086ZM68.7733 102.734H65.1178V103.527H68.7733V102.734ZM64.7244 103.182C64.7607 103.461 64.8603 103.76 65.0078 104.076L65.7269 103.741C65.6004 103.47 65.5336 103.251 65.5113 103.079L64.7244 103.182ZM65.015 104.091C65.1759 104.402 65.3653 104.664 65.5962 104.84L66.0782 104.21C65.9762 104.132 65.8525 103.983 65.7198 103.726L65.015 104.091ZM65.8372 104.922H68.6118V104.128H65.8372V104.922ZM75.5718 98.565H75.9686V98.1682H75.5718V98.565ZM75.2782 107.08L74.9143 106.921L74.9115 106.928L75.2782 107.08ZM74.1478 108.269V108.666H74.2582L74.3528 108.608L74.1478 108.269ZM70.8007 108.269H70.4039V108.666H70.8007V108.269ZM70.8007 106.742V106.345H70.4039V106.742H70.8007ZM73.311 106.742V107.139H73.4209L73.5152 107.082L73.311 106.742ZM73.678 105.171H74.0748V104.321L73.4232 104.867L73.678 105.171ZM70.8741 105.626L70.5695 105.881L70.6885 106.023H70.8741V105.626ZM70.0666 100.121L70.4287 100.283L70.4297 100.281L70.0666 100.121ZM71.1824 98.565V98.1682H71.0251L70.9106 98.2759L71.1824 98.565ZM73.7808 99.1816L73.4866 99.4478L73.9017 99.9066L74.1455 99.3379L73.7808 99.1816ZM74.045 98.565V98.1682H73.7834L73.6804 98.4087L74.045 98.565ZM73.6193 100.106H74.0161V99.7097H73.6193V100.106ZM72.1953 100.106V99.7097H71.9669L71.8522 99.9072L72.1953 100.106ZM72.1219 104.144L71.7811 104.347L71.8965 104.54H72.1219V104.144ZM73.6193 104.144V104.54H74.0161V104.144H73.6193ZM75.175 98.565V105.289H75.9686V98.565H75.175ZM75.175 105.289C75.175 106.003 75.0801 106.54 74.9143 106.921L75.6421 107.238C75.8677 106.719 75.9686 106.062 75.9686 105.289H75.175ZM74.9115 106.928C74.7678 107.276 74.4636 107.615 73.9428 107.929L74.3528 108.608C74.9673 108.238 75.4167 107.784 75.6449 107.231L74.9115 106.928ZM74.1478 107.872H70.8007V108.666H74.1478V107.872ZM71.1974 108.269V106.742H70.4039V108.269H71.1974ZM70.8007 107.139H73.311V106.345H70.8007V107.139ZM73.5152 107.082C73.897 106.853 74.0748 106.478 74.0748 106.037H73.2813C73.2813 106.243 73.2144 106.337 73.1069 106.402L73.5152 107.082ZM74.0748 106.037V105.171H73.2813V106.037H74.0748ZM73.4232 104.867C73.1671 105.082 72.7034 105.23 71.9457 105.23V106.023C72.7736 106.023 73.4648 105.868 73.9328 105.475L73.4232 104.867ZM71.9457 105.23H70.8741V106.023H71.9457V105.23ZM71.1786 105.372C70.4463 104.495 70.0817 103.484 70.0817 102.323H69.2882C69.2882 103.668 69.7163 104.859 70.5695 105.881L71.1786 105.372ZM70.0817 102.323C70.0817 101.456 70.205 100.782 70.4287 100.283L69.7046 99.9588C69.4194 100.595 69.2882 101.39 69.2882 102.323H70.0817ZM70.4297 100.281C70.6613 99.7555 71.001 99.28 71.4541 98.8541L70.9106 98.2759C70.385 98.77 69.9809 99.3319 69.7036 99.9611L70.4297 100.281ZM71.1824 98.9618H72.2687V98.1682H71.1824V98.9618ZM72.2687 98.9618C72.811 98.9618 73.2013 99.1325 73.4866 99.4478L74.075 98.9154C73.6165 98.4085 72.9987 98.1682 72.2687 98.1682V98.9618ZM74.1455 99.3379L74.4097 98.7213L73.6804 98.4087L73.4161 99.0253L74.1455 99.3379ZM74.045 98.9618H75.5718V98.1682H74.045V98.9618ZM73.6193 99.7097H72.1953V100.503H73.6193V99.7097ZM71.8522 99.9072C71.4603 100.582 71.27 101.352 71.27 102.206H72.0636C72.0636 101.474 72.2256 100.844 72.5384 100.306L71.8522 99.9072ZM71.27 102.206C71.27 103.038 71.4311 103.76 71.7811 104.347L72.4627 103.94C72.2059 103.51 72.0636 102.94 72.0636 102.206H71.27ZM72.1219 104.54H73.6193V103.747H72.1219V104.54ZM74.0161 104.144V100.106H73.2225V104.144H74.0161ZM76.7866 106.067H76.3899V106.463H76.7866V106.067ZM76.7866 98.565V98.1682H76.3899V98.565H76.7866ZM78.1813 98.565L78.5413 98.3983L78.4348 98.1682H78.1813V98.565ZM78.5483 99.3577L78.1882 99.5244L78.4691 100.131L78.8671 99.5939L78.5483 99.3577ZM80.6036 98.565H81.0003V98.1682H80.6036V98.565ZM80.6036 100.532V100.929H81.0003V100.532H80.6036ZM78.7391 100.532V100.135H78.3424V100.532H78.7391ZM78.7391 106.067V106.463H79.1359V106.067H78.7391ZM77.1834 106.067V98.565H76.3899V106.067H77.1834ZM76.7866 98.9618H78.1813V98.1682H76.7866V98.9618ZM77.8212 98.7317L78.1882 99.5244L78.9083 99.191L78.5413 98.3983L77.8212 98.7317ZM78.8671 99.5939C79.1926 99.1545 79.5738 98.9618 80.031 98.9618V98.1682C79.2942 98.1682 78.687 98.5039 78.2295 99.1216L78.8671 99.5939ZM80.031 98.9618H80.6036V98.1682H80.031V98.9618ZM80.2068 98.565V100.532H81.0003V98.565H80.2068ZM80.6036 100.135H78.7391V100.929H80.6036V100.135ZM78.3424 100.532V106.067H79.1359V100.532H78.3424ZM78.7391 105.67H76.7866V106.463H78.7391V105.67ZM84.6969 102.676H85.0937V102.279H84.6969V102.676ZM83.1261 102.676V102.279H82.9365L82.8174 102.426L83.1261 102.676ZM83.1408 104.525L82.8602 104.806L82.9764 104.922H83.1408V104.525ZM84.6969 104.525V104.922H85.0937V104.525H84.6969ZM81.5406 98.565V98.1682H81.1438V98.565H81.5406ZM85.1814 98.565L85.3855 98.2248L85.2912 98.1682H85.1814V98.565ZM86.3411 99.7835L85.9732 99.9322L85.9744 99.9349L86.3411 99.7835ZM86.6788 106.067V106.463H87.0992L87.0749 106.044L86.6788 106.067ZM85.0052 106.067L84.6503 106.244L84.76 106.463H85.0052V106.067ZM84.7409 105.538L85.0958 105.361L84.8597 104.889L84.4718 105.247L84.7409 105.538ZM82.2012 106.067L81.9829 106.398L82.0823 106.463H82.2012V106.067ZM82.2306 101.252V100.855H82.1053L82.0028 100.927L82.2306 101.252ZM84.6822 101.604L84.4534 101.928L85.079 102.37V101.604H84.6822ZM84.1831 100.106L84.3248 99.7358L84.2563 99.7097H84.1831V100.106ZM81.5406 100.106H81.1438V100.503H81.5406V100.106ZM84.6969 102.279H83.1261V103.072H84.6969V102.279ZM82.8174 102.426C82.5457 102.763 82.421 103.173 82.421 103.63H83.2146C83.2146 103.323 83.2954 103.097 83.4347 102.925L82.8174 102.426ZM82.421 103.63C82.421 104.089 82.5527 104.498 82.8602 104.806L83.4213 104.245C83.2982 104.122 83.2146 103.934 83.2146 103.63H82.421ZM83.1408 104.922H84.6969V104.128H83.1408V104.922ZM85.0937 104.525V102.676H84.3001V104.525H85.0937ZM81.5406 98.9618H85.1814V98.1682H81.5406V98.9618ZM84.9772 98.9052C85.5181 99.2297 85.8299 99.5775 85.9733 99.9322L86.709 99.6348C86.4804 99.0694 86.019 98.6049 85.3855 98.2248L84.9772 98.9052ZM85.9744 99.9349C86.1321 100.317 86.2233 100.874 86.2233 101.633H87.0168C87.0168 100.826 86.922 100.151 86.7078 99.632L85.9744 99.9349ZM86.2233 101.633V103.835H87.0168V101.633H86.2233ZM86.2233 103.835C86.2233 104.654 86.243 105.405 86.2827 106.09L87.0749 106.044C87.0362 105.377 87.0168 104.641 87.0168 103.835H86.2233ZM86.6788 105.67H85.0052V106.463H86.6788V105.67ZM85.3601 105.889L85.0958 105.361L84.386 105.716L84.6503 106.244L85.3601 105.889ZM84.4718 105.247C84.1852 105.511 83.7556 105.67 83.1261 105.67V106.463C83.8864 106.463 84.5332 106.27 85.0101 105.83L84.4718 105.247ZM83.1261 105.67H82.2012V106.463H83.1261V105.67ZM82.4195 105.735C81.7032 105.263 81.3501 104.602 81.3501 103.703H80.5566C80.5566 104.859 81.0354 105.774 81.9829 106.398L82.4195 105.735ZM81.3501 103.703C81.3501 102.795 81.7125 102.099 82.4584 101.576L82.0028 100.927C81.0457 101.598 80.5566 102.536 80.5566 103.703H81.3501ZM82.2306 101.648H83.6105V100.855H82.2306V101.648ZM83.6105 101.648C83.9047 101.648 84.1828 101.737 84.4534 101.928L84.911 101.28C84.5161 101.001 84.0798 100.855 83.6105 100.855V101.648ZM85.079 101.604V100.87H84.2854V101.604H85.079ZM85.079 100.87C85.079 100.622 85.0245 100.382 84.8895 100.176C84.7531 99.967 84.5554 99.824 84.3248 99.7358L84.0414 100.477C84.1435 100.516 84.1954 100.564 84.2253 100.61C84.2567 100.658 84.2854 100.736 84.2854 100.87H85.079ZM84.1831 99.7097H81.5406V100.503H84.1831V99.7097ZM81.9374 100.106V98.565H81.1438V100.106H81.9374ZM88.0937 100.106H88.4905V99.7097H88.0937V100.106ZM87.0807 100.106H86.684V100.503H87.0807V100.106ZM87.0807 98.565V98.1682H86.684V98.565H87.0807ZM88.0937 98.565V98.9618H88.4905V98.565H88.0937ZM88.0937 96.5244V96.1276H87.6969V96.5244H88.0937ZM90.0462 96.5244H90.443V96.1276H90.0462V96.5244ZM90.0462 98.565H89.6494V98.9618H90.0462V98.565ZM91.25 98.565H91.6468V98.1682H91.25V98.565ZM91.25 100.106V100.503H91.6468V100.106H91.25ZM90.0462 100.106V99.7097H89.6494V100.106H90.0462ZM90.3545 104.525L90.0507 104.78L90.1696 104.922H90.3545V104.525ZM91.25 104.525H91.6468V104.128H91.25V104.525ZM91.25 106.067V106.463H91.6468V106.067H91.25ZM89.1654 106.067L88.896 106.358L89.0101 106.463H89.1654V106.067ZM88.2258 104.511L87.8358 104.584L87.8362 104.586L88.2258 104.511ZM88.4905 102.793V100.106H87.6969V102.793H88.4905ZM88.0937 99.7097H87.0807V100.503H88.0937V99.7097ZM87.4775 100.106V98.565H86.684V100.106H87.4775ZM87.0807 98.9618H88.0937V98.1682H87.0807V98.9618ZM88.4905 98.565V96.5244H87.6969V98.565H88.4905ZM88.0937 96.9212H90.0462V96.1276H88.0937V96.9212ZM89.6494 96.5244V98.565H90.443V96.5244H89.6494ZM90.0462 98.9618H91.25V98.1682H90.0462V98.9618ZM90.8532 98.565V100.106H91.6468V98.565H90.8532ZM91.25 99.7097H90.0462V100.503H91.25V99.7097ZM89.6494 100.106V103.263H90.443V100.106H89.6494ZM89.6494 103.263C89.6494 103.882 89.7514 104.424 90.0507 104.78L90.6583 104.27C90.5465 104.137 90.443 103.837 90.443 103.263H89.6494ZM90.3545 104.922H91.25V104.128H90.3545V104.922ZM90.8532 104.525V106.067H91.6468V104.525H90.8532ZM91.25 105.67H89.1654V106.463H91.25V105.67ZM89.4347 105.775C88.9628 105.339 88.7035 104.892 88.6154 104.435L87.8362 104.586C87.9635 105.245 88.3306 105.835 88.896 106.358L89.4347 105.775ZM88.6158 104.437C88.5337 103.999 88.4905 103.453 88.4905 102.793H87.6969C87.6969 103.484 87.7418 104.082 87.8359 104.584L88.6158 104.437ZM95.4744 100.106L95.7634 99.8345L95.6459 99.7097H95.4744V100.106ZM94.3734 100.106V99.7097H94.1876L94.0686 99.8524L94.3734 100.106ZM94.0064 100.84L93.6275 100.722L93.6244 100.733L94.0064 100.84ZM93.8743 101.751H93.4775V102.147H93.8743V101.751ZM95.9736 101.751V102.147H96.3448L96.3695 101.777L95.9736 101.751ZM95.8561 100.84L95.4764 100.956L95.4774 100.959L95.8561 100.84ZM97.471 104.525H97.8677V104.128H97.471V104.525ZM97.471 106.067V106.463H97.8677V106.067H97.471ZM93.7421 106.067L93.521 106.396L93.6213 106.463H93.7421V106.067ZM92.2888 104.364L91.9203 104.511L91.923 104.518L92.2888 104.364ZM93.6981 98.565V98.1682H93.5693L93.465 98.2439L93.6981 98.565ZM96.0763 98.565L96.3105 98.2447L96.2059 98.1682H96.0763V98.565ZM97.4122 100.092L97.0486 100.25L97.4122 100.092ZM97.6325 103.131V103.527H97.9499L98.0195 103.218L97.6325 103.131ZM93.977 103.131V102.734H93.5251L93.5836 103.182L93.977 103.131ZM94.2266 103.909L93.867 104.076L93.8705 104.084L93.8742 104.091L94.2266 103.909ZM94.6964 104.525L94.4553 104.84L94.562 104.922H94.6964V104.525ZM95.4744 99.7097H94.3734V100.503H95.4744V99.7097ZM94.0686 99.8524C93.8774 100.082 93.7349 100.379 93.6277 100.722L94.3851 100.959C94.4736 100.676 94.5757 100.483 94.6782 100.36L94.0686 99.8524ZM93.6244 100.733C93.5276 101.077 93.4775 101.417 93.4775 101.751H94.271C94.271 101.497 94.309 101.23 94.3883 100.948L93.6244 100.733ZM93.8743 102.147H95.9736V101.354H93.8743V102.147ZM96.3695 101.777C96.3926 101.429 96.3456 101.077 96.2348 100.722L95.4774 100.959C95.5623 101.231 95.5936 101.485 95.5777 101.724L96.3695 101.777ZM96.2358 100.725C96.128 100.37 95.9771 100.062 95.7634 99.8345L95.1855 100.378C95.2849 100.484 95.3885 100.665 95.4764 100.956L96.2358 100.725ZM97.0742 104.525V106.067H97.8677V104.525H97.0742ZM97.471 105.67H93.7421V106.463H97.471V105.67ZM93.9633 105.737C93.3341 105.315 92.9046 104.805 92.6545 104.21L91.923 104.518C92.2405 105.273 92.78 105.899 93.521 106.396L93.9633 105.737ZM92.6572 104.216C92.4007 103.575 92.2745 102.935 92.2745 102.294H91.4809C91.4809 103.042 91.6288 103.782 91.9204 104.511L92.6572 104.216ZM92.2745 102.294C92.2745 100.805 92.8286 99.6863 93.9311 98.8861L93.465 98.2439C92.1404 99.2053 91.4809 100.572 91.4809 102.294H92.2745ZM93.6981 98.9618H96.0763V98.1682H93.6981V98.9618ZM95.8421 98.8852C96.4619 99.3385 96.8505 99.7966 97.0486 100.25L97.7759 99.9331C97.5042 99.3104 97.0022 98.7506 96.3105 98.2447L95.8421 98.8852ZM97.0486 100.25C97.2632 100.742 97.3678 101.232 97.3678 101.721H98.1614C98.1614 101.115 98.0311 100.518 97.7759 99.9331L97.0486 100.25ZM97.3678 101.721C97.3678 102.25 97.3252 102.689 97.2454 103.044L98.0195 103.218C98.1159 102.789 98.1614 102.289 98.1614 101.721H97.3678ZM97.6325 102.734H93.977V103.527H97.6325V102.734ZM93.5836 103.182C93.6199 103.461 93.7195 103.76 93.867 104.076L94.5861 103.741C94.4596 103.47 94.3928 103.251 94.3705 103.079L93.5836 103.182ZM93.8742 104.091C94.035 104.402 94.2245 104.664 94.4553 104.84L94.9374 104.21C94.8354 104.132 94.7117 103.983 94.579 103.726L93.8742 104.091ZM94.6964 104.922H97.471V104.128H94.6964V104.922ZM104.431 106.067V106.463H104.828V106.067H104.431ZM102.948 106.067L102.593 106.244L102.703 106.463H102.948V106.067ZM102.684 105.538L103.039 105.361L102.805 104.892L102.417 105.245L102.684 105.538ZM102.067 105.949L101.92 105.581L101.913 105.584L102.067 105.949ZM99.9388 106.067L99.6648 106.354L99.7798 106.463H99.9388V106.067ZM98.9112 104.452L98.5387 104.589L98.5406 104.594L98.9112 104.452ZM98.9112 100.106L98.548 99.9464L98.5458 99.9516L98.9112 100.106ZM99.9828 98.565V98.1682H99.821L99.7053 98.2814L99.9828 98.565ZM102.479 98.976L102.213 99.2705L102.875 99.8691V98.976H102.479ZM102.479 95.7904V95.3936H102.082V95.7904H102.479ZM104.431 95.7904H104.828V95.3936H104.431V95.7904ZM102.479 100.106H102.875V99.7097H102.479V100.106ZM101.069 100.106V99.7097H100.842L100.727 99.9055L101.069 100.106ZM101.055 104.525L100.723 104.743L100.84 104.922H101.055V104.525ZM102.479 104.525V104.922H102.875V104.525H102.479ZM104.431 105.67H102.948V106.463H104.431V105.67ZM103.303 105.889L103.039 105.361L102.329 105.716L102.593 106.244L103.303 105.889ZM102.417 105.245C102.225 105.42 102.059 105.525 101.92 105.581L102.215 106.318C102.468 106.216 102.713 106.048 102.951 105.832L102.417 105.245ZM101.913 105.584C101.802 105.63 101.584 105.67 101.216 105.67V106.463C101.612 106.463 101.961 106.425 102.221 106.315L101.913 105.584ZM101.216 105.67H99.9388V106.463H101.216V105.67ZM100.213 105.78C99.8323 105.417 99.5193 104.931 99.2818 104.31L98.5406 104.594C98.812 105.303 99.184 105.895 99.6648 106.354L100.213 105.78ZM99.2836 104.315C99.0573 103.7 98.9409 103.003 98.9409 102.22H98.1474C98.1474 103.082 98.2756 103.873 98.5388 104.589L99.2836 104.315ZM98.9409 102.22C98.9409 101.425 99.0581 100.777 99.2765 100.261L98.5458 99.9516C98.2748 100.591 98.1474 101.352 98.1474 102.22H98.9409ZM99.2742 100.266C99.5079 99.7362 99.8358 99.2641 100.26 98.8485L99.7053 98.2814C99.2099 98.7663 98.8233 99.3218 98.5481 99.9464L99.2742 100.266ZM99.9828 98.9618H101.245V98.1682H99.9828V98.9618ZM101.245 98.9618C101.693 98.9618 102 99.0786 102.213 99.2705L102.744 98.6816C102.35 98.3254 101.835 98.1682 101.245 98.1682V98.9618ZM102.875 98.976V95.7904H102.082V98.976H102.875ZM102.479 96.1871H104.431V95.3936H102.479V96.1871ZM104.034 95.7904V106.067H104.828V95.7904H104.034ZM102.479 99.7097H101.069V100.503H102.479V99.7097ZM100.727 99.9055C100.321 100.597 100.129 101.429 100.129 102.382H100.923C100.923 101.534 101.093 100.849 101.411 100.307L100.727 99.9055ZM100.129 102.382C100.129 103.321 100.315 104.119 100.723 104.743L101.386 104.308C101.09 103.855 100.923 103.224 100.923 102.382H100.129ZM101.055 104.922H102.479V104.128H101.055V104.922ZM102.875 104.525V100.106H102.082V104.525H102.875ZM109.053 95.7904V95.3936H108.972L108.897 95.4253L109.053 95.7904ZM112.576 95.7904H112.973V95.3936H112.576V95.7904ZM112.576 97.552V97.9488H112.973V97.552H112.576ZM109.757 97.552V97.1553H109.512L109.402 97.3746L109.757 97.552ZM109.713 97.6401L109.358 97.4627L109.265 97.6485L109.365 97.8308L109.713 97.6401ZM112.062 101.927L111.714 102.117L111.715 102.12L112.062 101.927ZM111.798 106.067V106.463H111.923L112.026 106.392L111.798 106.067ZM107.908 106.067H107.511V106.463H107.908V106.067ZM107.908 104.364V103.967H107.511V104.364H107.908ZM110.946 104.364V104.761H111.192L111.301 104.541L110.946 104.364ZM110.99 104.276L111.345 104.453L111.439 104.266L111.337 104.083L110.99 104.276ZM108.348 99.5339L108.001 99.727L108.001 99.727L108.348 99.5339ZM109.053 96.1871H112.576V95.3936H109.053V96.1871ZM112.179 95.7904V97.552H112.973V95.7904H112.179ZM112.576 97.1553H109.757V97.9488H112.576V97.1553ZM109.402 97.3746L109.358 97.4627L110.068 97.8176L110.112 97.7295L109.402 97.3746ZM109.365 97.8308L111.714 102.117L112.41 101.736L110.061 97.4495L109.365 97.8308ZM111.715 102.12C112.193 102.977 112.385 103.554 112.385 103.894H113.178C113.178 103.333 112.891 102.599 112.409 101.734L111.715 102.12ZM112.385 103.894C112.385 104.787 112.095 105.374 111.57 105.742L112.026 106.392C112.812 105.84 113.178 104.978 113.178 103.894H112.385ZM111.798 105.67H107.908V106.463H111.798V105.67ZM108.304 106.067V104.364H107.511V106.067H108.304ZM107.908 104.761H110.946V103.967H107.908V104.761ZM111.301 104.541L111.345 104.453L110.636 104.098L110.592 104.186L111.301 104.541ZM111.337 104.083L108.695 99.3408L108.001 99.727L110.644 104.469L111.337 104.083ZM108.695 99.3408C108.323 98.6735 108.172 98.1881 108.172 97.8603H107.379C107.379 98.3938 107.61 99.0241 108.001 99.727L108.695 99.3408ZM108.172 97.8603C108.172 97.4063 108.267 97.056 108.432 96.7878C108.596 96.5223 108.847 96.3091 109.208 96.1555L108.897 95.4253C108.407 95.6337 108.019 95.9467 107.757 96.3711C107.497 96.7929 107.379 97.2965 107.379 97.8603H108.172ZM117.051 100.106L117.34 99.8345L117.222 99.7097H117.051V100.106ZM115.95 100.106V99.7097H115.764L115.645 99.8524L115.95 100.106ZM115.583 100.84L115.204 100.722L115.201 100.733L115.583 100.84ZM115.451 101.751H115.054V102.147H115.451V101.751ZM117.55 101.751V102.147H117.921L117.946 101.777L117.55 101.751ZM117.432 100.84L117.053 100.956L117.054 100.959L117.432 100.84ZM119.047 104.525H119.444V104.128H119.047V104.525ZM119.047 106.067V106.463H119.444V106.067H119.047ZM115.318 106.067L115.097 106.396L115.198 106.463H115.318V106.067ZM113.865 104.364L113.497 104.511L113.499 104.518L113.865 104.364ZM115.274 98.565V98.1682H115.146L115.041 98.2439L115.274 98.565ZM117.653 98.565L117.887 98.2447L117.782 98.1682H117.653V98.565ZM118.989 100.092L118.625 100.25L118.989 100.092ZM119.209 103.131V103.527H119.526L119.596 103.218L119.209 103.131ZM115.553 103.131V102.734H115.101L115.16 103.182L115.553 103.131ZM115.803 103.909L115.443 104.076L115.447 104.084L115.45 104.091L115.803 103.909ZM116.273 104.525L116.032 104.84L116.138 104.922H116.273V104.525ZM117.051 99.7097H115.95V100.503H117.051V99.7097ZM115.645 99.8524C115.454 100.082 115.311 100.379 115.204 100.722L115.961 100.959C116.05 100.676 116.152 100.483 116.255 100.36L115.645 99.8524ZM115.201 100.733C115.104 101.077 115.054 101.417 115.054 101.751H115.847C115.847 101.497 115.885 101.23 115.965 100.948L115.201 100.733ZM115.451 102.147H117.55V101.354H115.451V102.147ZM117.946 101.777C117.969 101.429 117.922 101.077 117.811 100.722L117.054 100.959C117.139 101.231 117.17 101.485 117.154 101.724L117.946 101.777ZM117.812 100.725C117.704 100.37 117.553 100.062 117.34 99.8345L116.762 100.378C116.861 100.484 116.965 100.665 117.053 100.956L117.812 100.725ZM118.651 104.525V106.067H119.444V104.525H118.651ZM119.047 105.67H115.318V106.463H119.047V105.67ZM115.54 105.737C114.91 105.315 114.481 104.805 114.231 104.21L113.499 104.518C113.817 105.273 114.356 105.899 115.097 106.396L115.54 105.737ZM114.233 104.216C113.977 103.575 113.851 102.935 113.851 102.294H113.057C113.057 103.042 113.205 103.782 113.497 104.511L114.233 104.216ZM113.851 102.294C113.851 100.805 114.405 99.6863 115.507 98.8861L115.041 98.2439C113.717 99.2053 113.057 100.572 113.057 102.294H113.851ZM115.274 98.9618H117.653V98.1682H115.274V98.9618ZM117.418 98.8852C118.038 99.3385 118.427 99.7966 118.625 100.25L119.352 99.9331C119.08 99.3104 118.579 98.7506 117.887 98.2447L117.418 98.8852ZM118.625 100.25C118.84 100.742 118.944 101.232 118.944 101.721H119.738C119.738 101.115 119.607 100.518 119.352 99.9331L118.625 100.25ZM118.944 101.721C118.944 102.25 118.901 102.689 118.822 103.044L119.596 103.218C119.692 102.789 119.738 102.289 119.738 101.721H118.944ZM119.209 102.734H115.553V103.527H119.209V102.734ZM115.16 103.182C115.196 103.461 115.296 103.76 115.443 104.076L116.162 103.741C116.036 103.47 115.969 103.251 115.947 103.079L115.16 103.182ZM115.45 104.091C115.611 104.402 115.801 104.664 116.032 104.84L116.514 104.21C116.412 104.132 116.288 103.983 116.155 103.726L115.45 104.091ZM116.273 104.922H119.047V104.128H116.273V104.922ZM120.341 106.067H119.944V106.463H120.341V106.067ZM120.341 98.565V98.1682H119.944V98.565H120.341ZM121.735 98.565L122.095 98.3983L121.989 98.1682H121.735V98.565ZM122.102 99.3577L121.742 99.5244L122.023 100.131L122.421 99.5939L122.102 99.3577ZM124.158 98.565H124.554V98.1682H124.158V98.565ZM124.158 100.532V100.929H124.554V100.532H124.158ZM122.293 100.532V100.135H121.896V100.532H122.293ZM122.293 106.067V106.463H122.69V106.067H122.293ZM120.737 106.067V98.565H119.944V106.067H120.737ZM120.341 98.9618H121.735V98.1682H120.341V98.9618ZM121.375 98.7317L121.742 99.5244L122.462 99.191L122.095 98.3983L121.375 98.7317ZM122.421 99.5939C122.747 99.1545 123.128 98.9618 123.585 98.9618V98.1682C122.848 98.1682 122.241 98.5039 121.783 99.1216L122.421 99.5939ZM123.585 98.9618H124.158V98.1682H123.585V98.9618ZM123.761 98.565V100.532H124.554V98.565H123.761ZM124.158 100.135H122.293V100.929H124.158V100.135ZM121.896 100.532V106.067H122.69V100.532H121.896ZM122.293 105.67H120.341V106.463H122.293V105.67ZM129.198 106.067V106.463H129.339L129.448 106.375L129.198 106.067ZM126.482 106.067L126.232 106.375L126.341 106.463H126.482V106.067ZM125.367 104.555L125.73 104.396L125.367 104.555ZM124.956 98.565V98.1682H124.559V98.565H124.956ZM126.908 98.565H127.305V98.1682H126.908V98.565ZM127.393 104.525L127.051 104.727L127.166 104.922H127.393V104.525ZM128.288 104.525V104.922H128.521L128.634 104.719L128.288 104.525ZM128.773 98.565V98.1682H128.376V98.565H128.773ZM130.725 98.565H131.122V98.1682H130.725V98.565ZM130.314 104.525L130.679 104.68L130.314 104.525ZM129.198 105.67H126.482V106.463H129.198V105.67ZM126.733 105.759C126.318 105.422 125.982 104.972 125.73 104.396L125.003 104.714C125.299 105.39 125.707 105.948 126.232 106.375L126.733 105.759ZM125.73 104.396C125.48 103.825 125.352 103.185 125.352 102.47H124.559C124.559 103.282 124.705 104.032 125.003 104.714L125.73 104.396ZM125.352 102.47V98.565H124.559V102.47H125.352ZM124.956 98.9618H126.908V98.1682H124.956V98.9618ZM126.511 98.565V102.411H127.305V98.565H126.511ZM126.511 102.411C126.511 103.319 126.681 104.1 127.051 104.727L127.734 104.324C127.458 103.855 127.305 103.226 127.305 102.411H126.511ZM127.393 104.922H128.288V104.128H127.393V104.922ZM128.634 104.719C128.998 104.07 129.169 103.3 129.169 102.426H128.376C128.376 103.196 128.225 103.826 127.942 104.332L128.634 104.719ZM129.169 102.426V98.565H128.376V102.426H129.169ZM128.773 98.9618H130.725V98.1682H128.773V98.9618ZM130.328 98.565V102.397H131.122V98.565H130.328ZM130.328 102.397C130.328 103.122 130.2 103.778 129.949 104.37L130.679 104.68C130.976 103.98 131.122 103.218 131.122 102.397H130.328ZM129.949 104.37C129.696 104.966 129.36 105.424 128.948 105.759L129.448 106.375C129.976 105.946 130.384 105.376 130.679 104.68L129.949 104.37ZM131.938 106.067H131.542V106.463H131.938V106.067ZM131.938 98.565V98.1682H131.542V98.565H131.938ZM133.876 98.565H134.273V98.1682H133.876V98.565ZM133.876 106.067V106.463H134.273V106.067H133.876ZM131.938 95.7904V95.3936H131.542V95.7904H131.938ZM133.876 95.7904H134.273V95.3936H133.876V95.7904ZM133.876 97.7722V98.169H134.273V97.7722H133.876ZM131.938 97.7722H131.542V98.169H131.938V97.7722ZM132.335 106.067V98.565H131.542V106.067H132.335ZM131.938 98.9618H133.876V98.1682H131.938V98.9618ZM133.48 98.565V106.067H134.273V98.565H133.48ZM133.876 105.67H131.938V106.463H133.876V105.67ZM131.938 96.1871H133.876V95.3936H131.938V96.1871ZM133.48 95.7904V97.7722H134.273V95.7904H133.48ZM133.876 97.3755H131.938V98.169H133.876V97.3755ZM132.335 97.7722V95.7904H131.542V97.7722H132.335ZM137.147 103.512L136.766 103.625L136.767 103.627L137.147 103.512ZM137.675 104.525L137.378 104.788L137.496 104.922H137.675V104.525ZM139.877 104.525H140.274V104.128H139.877V104.525ZM139.877 106.067V106.463H140.274V106.067H139.877ZM136.662 106.067L136.415 106.377L136.524 106.463H136.662V106.067ZM136.78 98.565V98.1682H136.658L136.558 98.2361L136.78 98.565ZM139.877 98.565H140.274V98.1682H139.877V98.565ZM139.877 100.106V100.503H140.274V100.106H139.877ZM137.675 100.106V99.7097H137.506L137.389 99.8315L137.675 100.106ZM136.559 102.25C136.559 102.702 136.629 103.161 136.766 103.625L137.527 103.4C137.41 103.002 137.353 102.619 137.353 102.25H136.559ZM136.767 103.627C136.906 104.087 137.106 104.48 137.378 104.788L137.972 104.262C137.795 104.061 137.642 103.779 137.526 103.397L136.767 103.627ZM137.675 104.922H139.877V104.128H137.675V104.922ZM139.48 104.525V106.067H140.274V104.525H139.48ZM139.877 105.67H136.662V106.463H139.877V105.67ZM136.909 105.756C135.859 104.92 135.327 103.767 135.327 102.25H134.533C134.533 103.981 135.155 105.374 136.415 106.377L136.909 105.756ZM135.327 102.25C135.327 100.743 135.889 99.6444 137.002 98.8939L136.558 98.2361C135.204 99.1494 134.533 100.508 134.533 102.25H135.327ZM136.78 98.9618H139.877V98.1682H136.78V98.9618ZM139.48 98.565V100.106H140.274V98.565H139.48ZM139.877 99.7097H137.675V100.503H139.877V99.7097ZM137.389 99.8315C136.817 100.427 136.559 101.254 136.559 102.25H137.353C137.353 101.386 137.574 100.784 137.961 100.381L137.389 99.8315ZM143.96 100.106L144.249 99.8345L144.132 99.7097H143.96V100.106ZM142.859 100.106V99.7097H142.673L142.554 99.8524L142.859 100.106ZM142.492 100.84L142.113 100.722L142.11 100.733L142.492 100.84ZM142.36 101.751H141.963V102.147H142.36V101.751ZM144.459 101.751V102.147H144.831L144.855 101.777L144.459 101.751ZM144.342 100.84L143.962 100.956L143.963 100.959L144.342 100.84ZM145.957 104.525H146.353V104.128H145.957V104.525ZM145.957 106.067V106.463H146.353V106.067H145.957ZM142.228 106.067L142.007 106.396L142.107 106.463H142.228V106.067ZM140.775 104.364L140.406 104.511L140.409 104.518L140.775 104.364ZM142.184 98.565V98.1682H142.055L141.951 98.2439L142.184 98.565ZM144.562 98.565L144.796 98.2447L144.692 98.1682H144.562V98.565ZM145.898 100.092L145.534 100.25L145.898 100.092ZM146.118 103.131V103.527H146.436L146.505 103.218L146.118 103.131ZM142.463 103.131V102.734H142.011L142.069 103.182L142.463 103.131ZM142.712 103.909L142.353 104.076L142.356 104.084L142.36 104.091L142.712 103.909ZM143.182 104.525L142.941 104.84L143.048 104.922H143.182V104.525ZM143.96 99.7097H142.859V100.503H143.96V99.7097ZM142.554 99.8524C142.363 100.082 142.221 100.379 142.113 100.722L142.871 100.959C142.959 100.676 143.061 100.483 143.164 100.36L142.554 99.8524ZM142.11 100.733C142.013 101.077 141.963 101.417 141.963 101.751H142.757C142.757 101.497 142.795 101.23 142.874 100.948L142.11 100.733ZM142.36 102.147H144.459V101.354H142.36V102.147ZM144.855 101.777C144.878 101.429 144.831 101.077 144.721 100.722L143.963 100.959C144.048 101.231 144.079 101.485 144.063 101.724L144.855 101.777ZM144.722 100.725C144.614 100.37 144.463 100.062 144.249 99.8345L143.671 100.378C143.771 100.484 143.874 100.665 143.962 100.956L144.722 100.725ZM145.56 104.525V106.067H146.353V104.525H145.56ZM145.957 105.67H142.228V106.463H145.957V105.67ZM142.449 105.737C141.82 105.315 141.39 104.805 141.14 104.21L140.409 104.518C140.726 105.273 141.266 105.899 142.007 106.396L142.449 105.737ZM141.143 104.216C140.886 103.575 140.76 102.935 140.76 102.294H139.967C139.967 103.042 140.115 103.782 140.406 104.511L141.143 104.216ZM140.76 102.294C140.76 100.805 141.314 99.6863 142.417 98.8861L141.951 98.2439C140.626 99.2053 139.967 100.572 139.967 102.294H140.76ZM142.184 98.9618H144.562V98.1682H142.184V98.9618ZM144.328 98.8852C144.948 99.3385 145.336 99.7966 145.534 100.25L146.262 99.9331C145.99 99.3104 145.488 98.7506 144.796 98.2447L144.328 98.8852ZM145.534 100.25C145.749 100.742 145.854 101.232 145.854 101.721H146.647C146.647 101.115 146.517 100.518 146.262 99.9331L145.534 100.25ZM145.854 101.721C145.854 102.25 145.811 102.689 145.731 103.044L146.505 103.218C146.602 102.789 146.647 102.289 146.647 101.721H145.854ZM146.118 102.734H142.463V103.527H146.118V102.734ZM142.069 103.182C142.106 103.461 142.205 103.76 142.353 104.076L143.072 103.741C142.945 103.47 142.879 103.251 142.856 103.079L142.069 103.182ZM142.36 104.091C142.521 104.402 142.71 104.664 142.941 104.84L143.423 104.21C143.321 104.132 143.197 103.983 143.065 103.726L142.36 104.091ZM143.182 104.922H145.957V104.128H143.182V104.922ZM147.74 98.565V98.1682H147.657L147.581 98.2014L147.74 98.565ZM150.984 98.565H151.381V98.1682H150.984V98.565ZM150.984 100.106V100.503H151.381V100.106H150.984ZM148.694 100.106V99.7097H147.949L148.365 100.328L148.694 100.106ZM150.089 102.176L149.76 102.398L149.764 102.405L150.089 102.176ZM151.131 104.011L150.743 104.091L150.744 104.1L150.746 104.108L151.131 104.011ZM150.412 106.067V106.463H150.534L150.635 106.395L150.412 106.067ZM146.668 106.067H146.272V106.463H146.668V106.067ZM146.668 104.525V104.128H146.272V104.525H146.668ZM149.355 104.525V104.922H150.105L149.683 104.302L149.355 104.525ZM147.784 102.22L147.449 102.434L147.456 102.444L147.784 102.22ZM147.461 101.765L147.136 101.993L147.144 102.003L147.461 101.765ZM147.138 101.296L146.8 101.503L146.804 101.51L146.808 101.516L147.138 101.296ZM146.977 101.017L146.622 101.194V101.194L146.977 101.017ZM146.859 100.796L146.504 100.974L146.508 100.982L146.512 100.989L146.859 100.796ZM146.756 100.547L146.368 100.629L146.371 100.642L146.375 100.656L146.756 100.547ZM147.74 98.9618H150.984V98.1682H147.74V98.9618ZM150.588 98.565V100.106H151.381V98.565H150.588ZM150.984 99.7097H148.694V100.503H150.984V99.7097ZM148.365 100.328L149.76 102.398L150.418 101.955L149.023 99.8847L148.365 100.328ZM149.764 102.405C150.074 102.844 150.309 103.209 150.474 103.499C150.645 103.799 150.722 103.99 150.743 104.091L151.52 103.931C151.472 103.701 151.341 103.419 151.164 103.107C150.982 102.786 150.73 102.399 150.413 101.948L149.764 102.405ZM150.746 104.108C150.777 104.232 150.793 104.361 150.793 104.496H151.587C151.587 104.298 151.563 104.104 151.516 103.915L150.746 104.108ZM150.793 104.496C150.793 105.076 150.586 105.469 150.189 105.738L150.635 106.395C151.275 105.96 151.587 105.306 151.587 104.496H150.793ZM150.412 105.67H146.668V106.463H150.412V105.67ZM147.065 106.067V104.525H146.272V106.067H147.065ZM146.668 104.922H149.355V104.128H146.668V104.922ZM149.683 104.302L148.112 101.997L147.456 102.444L149.027 104.749L149.683 104.302ZM148.119 102.007C148.042 101.887 147.927 101.725 147.779 101.527L147.144 102.003C147.289 102.197 147.389 102.339 147.449 102.433L148.119 102.007ZM147.786 101.538C147.65 101.343 147.544 101.189 147.468 101.075L146.808 101.516C146.889 101.637 146.998 101.796 147.136 101.993L147.786 101.538ZM147.476 101.088C147.398 100.961 147.352 100.881 147.332 100.839L146.622 101.194C146.66 101.27 146.722 101.376 146.8 101.503L147.476 101.088ZM147.332 100.839C147.299 100.773 147.256 100.694 147.206 100.604L146.512 100.989C146.56 101.075 146.596 101.142 146.622 101.194L147.332 100.839ZM147.214 100.619C147.171 100.533 147.148 100.474 147.138 100.438L146.375 100.656C146.404 100.757 146.45 100.864 146.504 100.974L147.214 100.619ZM147.145 100.465C147.108 100.292 147.094 100.17 147.094 100.092H146.301C146.301 100.248 146.326 100.43 146.368 100.629L147.145 100.465ZM147.094 100.092C147.094 99.8013 147.164 99.5764 147.286 99.3979C147.409 99.2179 147.604 99.0573 147.899 98.9286L147.581 98.2014C147.181 98.376 146.855 98.6217 146.631 98.9505C146.405 99.2809 146.301 99.6678 146.301 100.092H147.094ZM154.563 106.067H154.166V106.463H154.563V106.067ZM154.563 95.7904V95.3936H154.166V95.7904H154.563ZM156.574 95.7904H156.971V95.3936H156.574V95.7904ZM156.574 104.364H156.177V104.761H156.574V104.364ZM159.628 104.364H160.025V103.967H159.628V104.364ZM159.628 106.067V106.463H160.025V106.067H159.628ZM154.96 106.067V95.7904H154.166V106.067H154.96ZM154.563 96.1871H156.574V95.3936H154.563V96.1871ZM156.177 95.7904V104.364H156.971V95.7904H156.177ZM156.574 104.761H159.628V103.967H156.574V104.761ZM159.231 104.364V106.067H160.025V104.364H159.231ZM159.628 105.67H154.563V106.463H159.628V105.67ZM161.111 97.552H161.507V97.1553H161.111V97.552ZM158.894 97.552H158.497V97.9488H158.894V97.552ZM158.894 95.7904V95.3936H158.497V95.7904H158.894ZM165.324 95.7904H165.721V95.3936H165.324V95.7904ZM165.324 97.552V97.9488H165.721V97.552H165.324ZM163.107 97.552V97.1553H162.71V97.552H163.107ZM163.107 106.067V106.463H163.504V106.067H163.107ZM161.111 106.067H160.714V106.463H161.111V106.067ZM161.111 97.1553H158.894V97.9488H161.111V97.1553ZM159.291 97.552V95.7904H158.497V97.552H159.291ZM158.894 96.1871H165.324V95.3936H158.894V96.1871ZM164.927 95.7904V97.552H165.721V95.7904H164.927ZM165.324 97.1553H163.107V97.9488H165.324V97.1553ZM162.71 97.552V106.067H163.504V97.552H162.71ZM163.107 105.67H161.111V106.463H163.107V105.67ZM161.507 106.067V97.552H160.714V106.067H161.507ZM168.172 104.364H167.775V104.761H168.172V104.364ZM169.493 104.364V104.761H169.684L169.803 104.612L169.493 104.364ZM170.139 102.866L169.755 102.769L169.753 102.774L170.139 102.866ZM169.523 97.552L169.83 97.3005L169.711 97.1553H169.523V97.552ZM168.172 97.552V97.1553H167.775V97.552H168.172ZM166.176 106.067H165.779V106.463H166.176V106.067ZM166.176 95.7904V95.3936H165.779V95.7904H166.176ZM170.433 95.7904L170.696 95.4936L170.584 95.3936H170.433V95.7904ZM170.565 106.067V106.463H170.738L170.856 106.337L170.565 106.067ZM168.172 104.761H169.493V103.967H168.172V104.761ZM169.803 104.612C170.128 104.206 170.362 103.644 170.525 102.959L169.753 102.774C169.604 103.401 169.407 103.837 169.183 104.116L169.803 104.612ZM170.524 102.964C170.698 102.278 170.786 101.594 170.786 100.914H169.992C169.992 101.525 169.913 102.143 169.755 102.769L170.524 102.964ZM170.786 100.914C170.786 99.3432 170.493 98.1106 169.83 97.3005L169.216 97.8035C169.707 98.4028 169.992 99.4114 169.992 100.914H170.786ZM169.523 97.1553H168.172V97.9488H169.523V97.1553ZM167.775 97.552V104.364H168.569V97.552H167.775ZM166.572 106.067V95.7904H165.779V106.067H166.572ZM166.176 96.1871H170.433V95.3936H166.176V96.1871ZM170.17 96.0872C171.462 97.2342 172.121 98.7932 172.121 100.811H172.914C172.914 98.601 172.183 96.8128 170.696 95.4936L170.17 96.0872ZM172.121 100.811C172.121 102.826 171.501 104.478 170.274 105.796L170.856 106.337C172.233 104.856 172.914 103.005 172.914 100.811H172.121ZM170.565 105.67H166.176V106.463H170.565V105.67Z" fill="black" mask="url(#path-5-inside-1_7_21)"/>
<defs>
<filter id="filter0_i_7_21" x="45.7746" y="18.095" width="81.3982" height="73.6455" filterUnits="userSpaceOnUse" color-interpolation-filters="sRGB">
<feFlood flood-opacity="0" result="BackgroundImageFix"/>
<feBlend mode="normal" in="SourceGraphic" in2="BackgroundImageFix" result="shape"/>
<feColorMatrix in="SourceAlpha" type="matrix" values="0 0 0 0 0 0 0 0 0 0 0 0 0 0 0 0 0 0 127 0" result="hardAlpha"/>
<feOffset dy="1.58708"/>
<feGaussianBlur stdDeviation="0.79354"/>
<feComposite in2="hardAlpha" operator="arithmetic" k2="-1" k3="1"/>
<feColorMatrix type="matrix" values="0 0 0 0 0 0 0 0 0 0 0 0 0 0 0 0 0 0 0.25 0"/>
<feBlend mode="normal" in2="shape" result="effect1_innerShadow_7_21"/>
</filter>
<linearGradient id="paint0_linear_7_21" x1="66.3756" y1="59.1197" x2="127.173" y2="59.1197" gradientUnits="userSpaceOnUse">
<stop stop-color="#403BEB"/>
<stop offset="1" stop-color="#22B7A0"/>
</linearGradient>
<linearGradient id="paint1_linear_7_21" x1="45.7746" y1="52.5917" x2="115.78" y2="52.5917" gradientUnits="userSpaceOnUse">
<stop stop-color="#403BEB"/>
<stop offset="1" stop-color="#22B7A0"/>
</linearGradient>
<linearGradient id="paint2_linear_7_21" x1="53.62" y1="51.0456" x2="108.417" y2="51.0456" gradientUnits="userSpaceOnUse">
<stop stop-color="#403BEB"/>
<stop offset="1" stop-color="#22B7A0"/>
</linearGradient>
</defs>
</svg>
