<svg width="60" height="60" viewBox="0 0 60 60" fill="none" xmlns="http://www.w3.org/2000/svg">
<path d="M29.9937 9.81543C26.1184 9.81543 22.9657 12.9681 22.9657 16.8433C22.9657 20.7186 26.1184 23.8712 29.9937 23.8712C33.8688 23.8712 37.0215 20.7186 37.0215 16.8433C37.0215 12.9681 33.8688 9.81543 29.9937 9.81543ZM29.9937 21.4809C27.4365 21.4809 25.3561 19.4004 25.3561 16.8433C25.3561 14.2861 27.4365 12.2058 29.9937 12.2058C32.5508 12.2058 34.6311 14.2862 34.6311 16.8433C34.6311 19.4004 32.5508 21.4809 29.9937 21.4809Z" fill="white"/>
<path d="M13.1676 16.9683C9.98299 16.9683 7.39221 19.559 7.39221 22.7436C7.39221 25.9282 9.98299 28.519 13.1676 28.519C16.3521 28.519 18.9429 25.9282 18.9429 22.7436C18.9429 19.559 16.352 16.9683 13.1676 16.9683ZM13.1676 26.1285C11.3011 26.1285 9.78272 24.6101 9.78272 22.7436C9.78272 20.8772 11.3011 19.3588 13.1676 19.3588C15.034 19.3588 16.5524 20.8773 16.5524 22.7436C16.5524 24.6099 15.034 26.1285 13.1676 26.1285Z" fill="white"/>
<path d="M46.8368 16.9683C43.6524 16.9683 41.0615 19.559 41.0615 22.7436C41.0615 25.9282 43.6524 28.519 46.8368 28.519C50.0214 28.519 52.612 25.9282 52.612 22.7436C52.612 19.559 50.0213 16.9683 46.8368 16.9683ZM46.8368 26.1285C44.9704 26.1285 43.452 24.6101 43.452 22.7436C43.452 20.8772 44.9704 19.3588 46.8368 19.3588C48.7031 19.3588 50.2215 20.8773 50.2215 22.7436C50.2215 24.6099 48.7031 26.1285 46.8368 26.1285Z" fill="white"/>
<path d="M58.8048 47.7941H55.4442V38.9941C55.4442 34.248 51.5829 30.3867 46.8367 30.3867C44.1974 30.3867 41.833 31.5818 40.253 33.4581C39.02 28.9495 34.888 25.6257 29.9937 25.6257C25.1036 25.6257 20.9754 28.9516 19.7455 33.4625C18.1677 31.5837 15.805 30.3867 13.1675 30.3867C8.42144 30.3867 4.56 34.248 4.56 38.9941V47.7941H1.1952C0.535078 47.7941 0 48.3292 0 48.9893C0 49.6494 0.535078 50.1845 1.1952 50.1845H58.8048C59.4648 50.1845 60 49.6494 60 48.9893C60 48.3292 59.4648 47.7941 58.8048 47.7941ZM19.3718 47.7941H6.95039V38.9941C6.95039 35.5662 9.73934 32.7772 13.1674 32.7772C16.5885 32.7772 19.3717 35.5662 19.3717 38.9941V47.7941H19.3718ZM38.2295 47.7941H21.7622V36.2604C21.7622 31.7144 25.4548 28.0161 29.9937 28.0161C34.5396 28.0161 38.2379 31.7144 38.2379 36.2604L38.2295 47.7941ZM53.0537 47.794H40.6283V38.6692C40.7979 35.3916 43.5178 32.7771 46.8368 32.7771C50.2648 32.7771 53.0537 35.566 53.0537 38.994V47.794Z" fill="white"/>
<path d="M24.2672 38.6179C23.6071 38.6179 23.072 39.153 23.072 39.8131V45.5482C23.072 46.2083 23.6071 46.7434 24.2672 46.7434C24.9273 46.7434 25.4624 46.2083 25.4624 45.5482V39.8132C25.4624 39.1532 24.9273 38.6179 24.2672 38.6179Z" fill="white"/>
<path d="M24.2672 34.7947C23.6071 34.7947 23.072 35.3298 23.072 35.9899V36.2448C23.072 36.9049 23.6071 37.44 24.2672 37.44C24.9273 37.44 25.4624 36.9049 25.4624 36.2448V35.9899C25.4624 35.3298 24.9273 34.7947 24.2672 34.7947Z" fill="white"/>
</svg>
