<svg width="60" height="60" viewBox="0 0 60 60" fill="none" xmlns="http://www.w3.org/2000/svg">
<path d="M35.9765 16.8832L16.8846 35.9751L24.044 43.1346L43.1359 24.0427L35.9765 16.8832Z" stroke="white" stroke-width="4.775" stroke-miterlimit="10"/>
<path d="M46.7 22.85C51.9743 22.85 56.25 18.5743 56.25 13.3C56.25 8.02568 51.9743 3.75 46.7 3.75C41.4257 3.75 37.15 8.02568 37.15 13.3C37.15 18.5743 41.4257 22.85 46.7 22.85Z" stroke="white" stroke-width="4.775" stroke-miterlimit="10"/>
<path d="M13.3 56.2499C18.5743 56.2499 22.85 51.9742 22.85 46.6999C22.85 41.4256 18.5743 37.1499 13.3 37.1499C8.02568 37.1499 3.75 41.4256 3.75 46.6999C3.75 51.9742 8.02568 56.2499 13.3 56.2499Z" stroke="white" stroke-width="4.775" stroke-miterlimit="10"/>
<path d="M30 22.85L22.85 30L15.675 22.85H10.9C9.00141 22.8434 7.18283 22.0845 5.84266 20.7397C4.50249 19.3948 3.74999 17.5736 3.75 15.675V10.9L4.75 11.9C5.63524 12.8405 6.83609 13.4216 8.12289 13.5323C9.4097 13.643 10.6922 13.2755 11.725 12.5C12.2814 12.058 12.7371 11.5025 13.0619 10.8705C13.3867 10.2385 13.573 9.54449 13.6085 8.8348C13.644 8.12511 13.5278 7.41602 13.2677 6.75477C13.0076 6.09352 12.6095 5.4953 12.1 5L10.9 3.75H15.675C17.5736 3.74999 19.3948 4.50249 20.7397 5.84266C22.0845 7.18283 22.8434 9.00141 22.85 10.9V15.675L30 22.85Z" stroke="white" stroke-width="4.775" stroke-miterlimit="10"/>
<path d="M49.1 37.15C50.9986 37.1566 52.8172 37.9155 54.1573 39.2603C55.4975 40.6052 56.25 42.4264 56.25 44.325V49.1L55.25 48.1C54.3648 47.1595 53.1639 46.5784 51.8771 46.4677C50.5903 46.357 49.3078 46.7245 48.275 47.5C47.7186 47.942 47.2629 48.4975 46.9381 49.1295C46.6133 49.7615 46.427 50.4555 46.3915 51.1652C46.356 51.8749 46.4722 52.584 46.7323 53.2452C46.9924 53.9065 47.3905 54.5047 47.9 55L49.1 56.2H44.325C42.4264 56.2 40.6052 55.4475 39.2603 54.1073C37.9155 52.7672 37.1566 50.9486 37.15 49.05V44.325L30 37.15L37.15 30L44.325 37.15H49.1Z" stroke="white" stroke-width="4.775" stroke-miterlimit="10"/>
</svg>
