<svg width="56" height="56" viewBox="0 0 56 56" fill="none" xmlns="http://www.w3.org/2000/svg">
<g clip-path="url(#clip0_76_233)">
<path d="M12 24C15.309 24 18 21.309 18 18C18 14.691 15.309 12 12 12C8.691 12 6 14.691 6 18C6 21.309 8.691 24 12 24ZM12 14C14.206 14 16 15.794 16 18C16 20.206 14.206 22 12 22C9.794 22 8 20.206 8 18C8 15.794 9.794 14 12 14Z" fill="white"/>
<path d="M44 24C47.309 24 50 21.309 50 18C50 14.691 47.309 12 44 12C40.691 12 38 14.691 38 18C38 21.309 40.691 24 44 24ZM44 14C46.206 14 48 15.794 48 18C48 20.206 46.206 22 44 22C41.794 22 40 20.206 40 18C40 15.794 41.794 14 44 14Z" fill="white"/>
<path d="M54 26V39C54 40.654 52.654 42 51 42V31C51 28.243 48.757 26 46 26H41C40.448 26 40 26.448 40 27V31V32V33H32C31.448 33 31 33.448 31 34V37H25V34C25 33.448 24.552 33 24 33H16V32V31V27C16 26.448 15.552 26 15 26H10C7.243 26 5 28.243 5 31V42C3.346 42 2 40.654 2 39V26H0V39C0 41.045 1.237 42.802 3 43.576V56H5V44H6H7H15V55C15 55.552 15.448 56 16 56H19H20H21V55V40V39H24H32H35V40V55V56H36H37H40C40.552 56 41 55.552 41 55V44H49H50H51V56H53V43.576C54.763 42.802 56 41.045 56 39V26H54ZM20 37H18H12V31H10V38C10 38.552 10.448 39 11 39H18C18.551 39 19 39.449 19 40V54H17V43C17 42.448 16.552 42 16 42H7V31C7 29.346 8.346 28 10 28H14V31V32V34C14 34.552 14.448 35 15 35H23V37H20ZM40 42C39.448 42 39 42.448 39 43V54H37V40C37 39.449 37.449 39 38 39H45C45.552 39 46 38.552 46 38V31H44V37H38H36H33V35H41C41.552 35 42 34.552 42 34V32V31V28H46C47.654 28 49 29.346 49 31V42H40Z" fill="white"/>
<path d="M19 10V13C19 13.431 19.275 13.812 19.684 13.949C19.788 13.983 19.895 14 20 14C20.309 14 20.607 13.856 20.8 13.6L23.5 10H31C32.654 10 34 8.654 34 7V3C34 1.346 32.654 0 31 0H19C17.346 0 16 1.346 16 3V7C16 8.654 17.346 10 19 10ZM18 3C18 2.449 18.449 2 19 2H31C31.551 2 32 2.449 32 3V7C32 7.551 31.551 8 31 8H23C22.685 8 22.389 8.148 22.2 8.4L21 10V9C21 8.448 20.552 8 20 8H19C18.449 8 18 7.551 18 7V3Z" fill="white"/>
<path d="M30 4H20V6H30V4Z" fill="white"/>
<path d="M33 25H27V27H33V25Z" fill="white"/>
<path d="M26 21C24.346 21 23 22.346 23 24V28C23 29.654 24.346 31 26 31H34C35.654 31 37 29.654 37 28V27.303L38.832 24.555C39.037 24.248 39.056 23.854 38.882 23.529C38.708 23.203 38.369 23 38 23H36.829C36.416 21.836 35.304 21 34 21H26ZM35 24C35 24.552 35.448 25 36 25H36.131L35.168 26.445C35.059 26.609 35 26.803 35 27V28C35 28.551 34.551 29 34 29H26C25.449 29 25 28.551 25 28V24C25 23.449 25.449 23 26 23H34C34.551 23 35 23.449 35 24Z" fill="white"/>
<path d="M25 16H23V18H25V16Z" fill="white"/>
<path d="M29 16H27V18H29V16Z" fill="white"/>
<path d="M33 16H31V18H33V16Z" fill="white"/>
</g>
<defs>
<clipPath id="clip0_76_233">
<rect width="56" height="56" fill="white"/>
</clipPath>
</defs>
</svg>
