<svg width="60" height="60" viewBox="0 0 60 60" fill="none" xmlns="http://www.w3.org/2000/svg">
<path d="M7.66046 24.2159C7.82274 24.2159 7.98366 24.1501 8.10109 24.021L12.3955 19.2795C12.7988 18.8344 13.6794 18.4439 14.2801 18.4439H20.0188C20.347 18.4439 20.613 18.1779 20.613 17.8497C20.613 17.5215 20.347 17.2556 20.0188 17.2556H14.2804C13.3526 17.2556 12.138 17.7941 11.5152 18.4817L7.22037 23.2226C7.00033 23.466 7.01868 23.8414 7.26169 24.062C7.37559 24.1653 7.51802 24.2159 7.66046 24.2159Z" fill="white"/>
<path d="M53.9498 28.2482L47.4339 18.6665C46.8964 17.8756 45.7262 17.2559 44.7695 17.2559H39.2685C38.9403 17.2559 38.6744 17.5218 38.6744 17.8499C38.6744 18.1782 38.9403 18.4441 39.2685 18.4441H44.7697C45.3332 18.4441 46.1346 18.8683 46.4514 19.3344L52.9673 28.9168C53.329 29.4485 53.6465 30.4798 53.6465 31.1233V58.0145C53.6465 58.4538 53.289 58.8114 52.8498 58.8114H48.1727V49.8294H50.4698C50.8615 49.8294 51.1699 49.6576 51.3168 49.3585C51.4636 49.0594 51.4102 48.7102 51.1707 48.4004L46.7522 42.6993C46.5435 42.4303 46.2419 42.277 45.923 42.277H45.9148C45.5931 42.2797 45.2904 42.4386 45.0849 42.7129L40.8178 48.4026C40.5842 48.7143 40.5355 49.0636 40.6843 49.3612C40.8331 49.6589 41.1421 49.8297 41.5315 49.8297H43.6633V58.8117H34.9833V49.8297H37.2804C37.6718 49.8297 37.9805 49.6579 38.1271 49.3588C38.2739 49.0596 38.2206 48.7105 37.981 48.4007L33.5625 42.6996C33.3539 42.4306 33.0523 42.2773 32.7333 42.2773H32.7251C32.4034 42.28 32.1007 42.4389 31.8952 42.7132L27.6281 48.4026C27.3948 48.7145 27.3458 49.0638 27.4949 49.3615C27.6435 49.659 27.9521 49.83 28.3418 49.83H30.4736V58.8119H8.06834C7.12266 58.8119 6.35366 58.0427 6.35366 57.0974V30.5479C6.35366 29.6022 7.12266 28.8332 8.06834 28.8332H46.3982C46.7265 28.8332 46.9923 28.5672 46.9923 28.239C46.9923 27.9108 46.7265 27.6448 46.3982 27.6448H8.06834C6.46769 27.6448 5.16537 28.9471 5.16537 30.5477V57.0971C5.16537 58.6975 6.46742 60.0001 8.06834 60.0001H31.0677C31.3959 60.0001 31.6617 59.7338 31.6617 59.406V49.2356C31.6617 48.9073 31.3959 48.6413 31.0677 48.6413L28.9342 48.641L32.7357 43.5724L36.6633 48.6413H34.3888C34.0606 48.6413 33.7948 48.9073 33.7948 49.2356V59.406C33.7948 59.7338 34.0606 60.0001 34.3888 60.0001H44.2417C44.5698 60.0001 44.8358 59.7338 44.8358 59.406C44.8358 59.3863 44.8511 49.2356 44.8511 49.2356C44.8511 48.9073 44.5853 48.6413 44.2571 48.6413L42.1236 48.641L45.9253 43.5724L49.8529 48.6413H47.5784C47.2501 48.6413 46.9842 48.9073 46.9842 49.2356C46.9842 49.2356 46.9979 59.3845 46.9979 59.406C46.9979 59.7338 47.2637 60.0001 47.592 60.0001H52.8496C53.944 60.0001 54.8346 59.1092 54.8346 58.0148V31.1236C54.8349 30.241 54.4462 28.9781 53.9498 28.2482Z" fill="white"/>
<path d="M29.1911 20.2648C29.4181 20.5574 29.7458 20.7248 30.0909 20.7248H30.0994C30.4476 20.7218 30.7761 20.549 31.0002 20.2498L36.1054 13.4427C36.3577 13.1062 36.4118 12.7329 36.2542 12.4177C36.0967 12.1025 35.7651 11.9217 35.3453 11.9217H32.6781V0.594211C32.6781 0.265982 32.4121 0 32.0839 0C31.7558 0 31.4898 0.265982 31.4898 0.594211V12.5158C31.4898 12.844 31.7558 13.11 32.0839 13.11H34.8697L30.0885 19.4824L25.1496 13.11H28.1101C28.4383 13.11 28.7041 12.844 28.7041 12.5158V4.19794C28.7041 3.86971 28.4382 3.60387 28.1101 3.60387C27.7822 3.60387 27.5158 3.86985 27.5158 4.19794V11.9217H24.6507C24.2281 11.9217 23.897 12.1033 23.7421 12.4199C23.5869 12.7364 23.646 13.1093 23.9046 13.4434L29.1911 20.2648Z" fill="white"/>
</svg>
