<svg width="60" height="60" viewBox="0 0 60 60" fill="none" xmlns="http://www.w3.org/2000/svg">
<path d="M36.4534 15.2948C36.3405 14.6338 35.7677 14.1501 35.0966 14.1501H4.15195C3.26016 14.1501 2.53805 14.8731 2.53805 15.7632C2.53805 16.655 3.26016 17.3771 4.15195 17.3771H11.6828C12.5746 17.3771 13.2967 18.1002 13.2967 18.9912C13.2967 19.8821 12.5746 20.6051 11.6828 20.6051H1.61391C0.72293 20.6051 0 21.328 0 22.219C0 23.11 0.72293 23.8319 1.61391 23.8319H15.3382C16.1257 23.8319 16.7646 24.4718 16.7646 25.2593C16.7646 26.0468 16.1257 26.6857 15.3382 26.6857H8.04668C7.15488 26.6857 6.43277 27.4087 6.43277 28.2997C6.43277 29.1906 7.15488 29.9136 8.04668 29.9136H13.4205C14.2088 29.9136 14.8478 30.5525 14.8478 31.34C14.8478 32.1274 14.2088 32.7664 13.4205 32.7664H6.00176C5.10996 32.7664 4.38785 33.4894 4.38785 34.3803C4.38785 35.2713 5.10996 35.9942 6.00176 35.9942H16.1987L16.8418 39.632H20.5356C20.3183 40.1598 20.1945 40.736 20.1945 41.3427C20.1945 43.8323 22.2122 45.8502 24.702 45.8502C27.1907 45.8502 29.2085 43.8323 29.2085 41.3427C29.2085 40.736 29.0847 40.1598 28.8674 39.632H40.5908L36.4534 15.2948ZM26.6416 41.3426C26.6416 42.4144 25.7736 43.2824 24.7018 43.2824C23.6293 43.2824 22.7612 42.4144 22.7612 41.3426C22.7612 40.5968 23.1862 39.9569 23.8032 39.6319H25.5996C26.2165 39.9569 26.6416 40.5967 26.6416 41.3426Z" fill="white"/>
<path d="M59.9529 36.8054L58.1014 27.6717L51.341 17.2703H39.0321L42.8447 39.6319H47.347C47.1307 40.1597 47.0067 40.7359 47.0067 41.3426C47.0067 43.8322 49.0246 45.8501 51.5133 45.8501C54.003 45.8501 56.0208 43.8322 56.0208 41.3426C56.0208 40.7359 55.8969 40.1597 55.6798 39.6319H57.6416C58.3493 39.6319 59.0196 39.3145 59.4676 38.7663C59.9148 38.2192 60.0937 37.4987 59.9529 36.8054ZM45.9995 21.4316H49.0832L53.0865 27.5894H47.05L45.9995 21.4316ZM53.4539 41.3426C53.4539 42.4144 52.5859 43.2824 51.5133 43.2824C50.4424 43.2824 49.5736 42.4144 49.5736 41.3426C49.5736 40.5968 49.9996 39.9569 50.6156 39.6319H52.412C53.0289 39.9569 53.4539 40.5967 53.4539 41.3426Z" fill="white"/>
</svg>
