<svg width="60" height="60" viewBox="0 0 60 60" fill="none" xmlns="http://www.w3.org/2000/svg">
<g clip-path="url(#clip0_76_213)">
<path d="M14.7656 39.1406C11.7188 39.1406 9.25781 41.6016 9.25781 44.6484C9.25781 47.6953 11.7188 50.1562 14.7656 50.1562C17.8125 50.1562 20.2734 47.6953 20.2734 44.6484C20.2734 41.6016 17.8125 39.1406 14.7656 39.1406ZM14.7656 46.7344C13.6172 46.7344 12.6562 45.7734 12.6562 44.625C12.6562 43.4766 13.6172 42.5156 14.7656 42.5156C15.9141 42.5156 16.875 43.4766 16.875 44.625C16.875 45.7969 15.9375 46.7344 14.7656 46.7344ZM49.4062 38.9062C46.3594 38.9062 43.8984 41.3672 43.8984 44.4141C43.8984 47.4609 46.3594 49.9219 49.4062 49.9219C52.4531 49.9219 54.9141 47.4609 54.9141 44.4141C54.9141 41.3672 52.4531 38.9062 49.4062 38.9062ZM49.4062 46.5C48.2578 46.5 47.2969 45.5391 47.2969 44.3906C47.2969 43.2422 48.2578 42.2812 49.4062 42.2812C50.5547 42.2812 51.5156 43.2422 51.5156 44.3906C51.5156 45.5625 50.5781 46.5 49.4062 46.5ZM-0.117188 41.5078C-0.117188 42.5859 0.75 43.4297 1.80469 43.4297H7.10156C7.3125 43.4297 7.5 43.2656 7.54688 43.0781C8.15625 39.6328 11.1562 37.2422 14.7656 37.2422C18.375 37.2422 21.3984 39.6328 21.9844 43.0781C22.0312 43.2891 22.1953 43.4297 22.4297 43.4297H23.2031H30.4453V34.9219H-0.117188V41.5078ZM59.4375 39.4922H58.2656V34.3359C58.2656 32.5781 56.8359 31.1484 55.0547 31.1484H49.3594C49.2422 31.1484 49.125 31.0781 49.0312 31.0078L40.125 22.3359C39.7266 21.9375 39.1641 21.7031 38.5781 21.6797H32.1328V43.4297H41.7188C41.9297 43.4297 42.1172 43.2656 42.1641 43.0781C42.7734 39.6328 45.7734 37.0078 49.3828 37.0078C52.9922 37.0078 56.0156 39.6328 56.6016 43.0781C56.6484 43.2891 56.8125 43.4297 57.0469 43.4297H57.7969C58.9453 43.4297 59.8359 42.5156 59.8359 41.3906V39.9141C59.8828 39.7031 59.6719 39.4922 59.4375 39.4922ZM44.7891 31.1719H35.0859C34.8516 31.1719 34.6406 30.9609 34.6406 30.7266V24.5391C34.6406 24.3047 34.8516 24.0938 35.0859 24.0938H38.3438C38.4609 24.0938 38.5781 24.1641 38.6953 24.2344L45.1406 30.3984C45.3516 30.7031 45.1641 31.1719 44.7891 31.1719Z" fill="white"/>
<path d="M13.5469 31.7578H4.00781V22.2188H7.6875V25.2656H9.86719V22.2188H13.5469V31.7578ZM25.9922 31.7578H16.4766V22.2188H20.1562V25.2656H22.3359V22.2188H26.0156V31.7578H25.9922ZM19.8516 19.2891H10.3125V9.75H13.9922V12.7969H16.1719V9.75H19.8516V19.2891Z" fill="white"/>
</g>
<defs>
<clipPath id="clip0_76_213">
<rect width="60" height="60" fill="white"/>
</clipPath>
</defs>
</svg>
