<svg width="60" height="60" viewBox="0 0 60 60" fill="none" xmlns="http://www.w3.org/2000/svg">
<path d="M54 19.9999C53.6952 20.0011 53.3944 19.9327 53.12 19.7999L30 7.99993L6.88 19.7199C5.8528 20.2059 4.626 19.7671 4.14 18.7399C3.654 17.7127 4.0928 16.4859 5.12 15.9999L30 3.67993L54.88 15.9999C55.9844 16.2431 56.6832 17.3355 56.44 18.4399C56.1968 19.5443 55.1044 20.2431 54 19.9999ZM20 39.9999H8V51.9999H20V39.9999ZM36 39.9999H24V51.9999H36V39.9999ZM52 39.9999H40V51.9999H52V39.9999ZM44 23.9999H32V35.9999H44V23.9999ZM28 23.9999H16V35.9999H28V23.9999Z" fill="#EEEEEE"/>
</svg>
